<svg id="Layer_1" data-name="Layer 1" xmlns="http://www.w3.org/2000/svg" width="490.5897" height="512" viewBox="0 0 490.5897 512"><path d="M116.7826,43.4655c10.7145.0748,21.1252,2.58,31.6756,3.9679,1.6952.223,3.401.3814,5.0859.6645,19.0393,3.1983,34.13-3.718,46.9559-17.5038,7.239-7.78,14.5823-15.56,23.1266-22.0128C238.7509-2.8413,251.782-2.8625,266.91,8.53c8.8591,6.6717,16.5426,14.6714,23.93,22.8172,14.2456,15.7083,31.57,19.7628,51.8049,16.0917,11.5733-2.1,23.1845-4.335,35.0975-3.9916,14.74.4248,23.8373,6.6769,29.01,20.5384,4.5572,12.2132,5.9794,25.1284,7.7618,37.8769,2.5672,18.3613,11.1058,32.0053,28.15,40.031,5.6778,2.6736,11.2086,5.6647,16.7549,8.6076,4.0322,2.1395,8.0725,4.2888,11.9487,6.6916,19.4751,12.0722,23.6951,24.6735,14.7278,45.8326-4.4434,10.4844-9.7217,20.6253-14.8278,30.8191-7.4206,14.8145-7.4849,29.52.0067,44.308,3.521,6.95,6.8653,13.99,10.32,20.9736a113.0118,113.0118,0,0,1,6.9,16.2488c4.7883,15.2966,1.2142,26.5766-11.92,35.9059a180.9563,180.9563,0,0,1-16.1093,9.7231,112.8906,112.8906,0,0,1-12.25,6.1282c-21.7806,8.9931-32.7218,25.4408-34.6773,48.6215a154.9306,154.9306,0,0,1-4.0893,22.966c-5.974,24.8958-18.7445,33.1254-44.2237,29.3677-11.2786-1.6633-22.499-3.7134-33.9108-4.5851-12.203-.9322-22.906,1.8215-32.2484,9.97-6.8964,6.0152-13.2821,12.5274-19.78,18.939a118.4086,118.4086,0,0,1-13.2087,11.7457c-14.3442,10.4521-27.1646,10.4532-41.467.0282a110.0229,110.0229,0,0,1-19.9622-18.6882c-16.96-20.497-38.0676-26.0489-63.4226-19.9247a108.6392,108.6392,0,0,1-28.3113,3.016c-14.7243-.3832-23.8827-6.6676-29.0423-20.4965-4.6233-12.3914-5.9645-25.5067-7.8775-38.434-2.605-17.6035-10.5694-31.0548-27.0082-38.9358-5.3164-2.5487-10.5047-5.3685-15.7081-8.1457-4.6987-2.5077-9.4567-4.9347-13.9826-7.7294C-.2472,342.78-4.4736,330.19,4.4848,309.0529c4.4435-10.4842,9.7165-20.6275,14.827-30.8187,7.4254-14.8075,7.5154-29.5049.0454-44.3086-4.28-8.483-8.38-17.057-12.561-25.59A72.5422,72.5422,0,0,1,1.229,193.41C-1.534,181.9279.8726,171.9724,9.97,163.9669c5.7659-5.0739,12.3709-8.8347,19.1166-12.3814,6.7365-3.5419,13.4259-7.1863,20.2766-10.4958,16.0213-7.74,23.9366-20.88,26.5008-38.0224C77.5194,92,78.9255,80.86,81.8681,70.0226,87.1591,50.5368,96.7052,43.325,116.7826,43.4655Zm214.2134,145.48c.1465-11.4279-6.7807-18.34-17.3264-18.5128-6.2857-.1031-10.7475,2.9645-14.9241,7.1448-27.0128,27.0365-54.1336,53.9658-81.0736,81.0742-3.3264,3.3472-5.4753,3.4672-8.7325.0078-6.3824-6.7788-13.0122-13.3444-19.8177-19.7018-5.5351-5.1708-14.5629-6.262-20.7214-2.78-6.8817,3.8905-9.4123,10.002-8.7663,17.7577.4094,4.9148,2.99,8.4968,6.2755,11.78,10.8933,10.8879,21.7588,21.8038,32.7119,32.6314,9.9249,9.8112,19.4051,9.8191,29.3293.0515,8.131-8.0026,16.1637-16.1048,24.2387-24.1641q35.5294-35.4609,71.0533-70.9274C327.4662,199.0884,331.522,194.7544,330.996,188.9459Z"/></svg>