<svg id="Layer_1" data-name="Layer 1" xmlns="http://www.w3.org/2000/svg" width="384.5117" height="512" viewBox="0 0 384.5117 512"><path d="M177.2648,0h29.9763c3.9137.7457,7.843,1.4186,11.7389,2.2481C280.5359,15.3535,321.6754,70.68,320.5933,128.7939c-.3533,18.9733.0421,37.9595-.1246,56.9379-.0381,4.3436,1.43,6.0943,5.7941,5.7783,3.4778-.2518,6.9889-.0638,10.4851-.038A47.8,47.8,0,0,1,384.45,239.1566q.1226,112.63-.0031,225.2607a47.6583,47.6583,0,0,1-47.3386,47.5194q-144.846.1269-289.6922.0006A47.6831,47.6831,0,0,1,.0567,464.4309Q-.0685,351.8006.0481,239.17c.0159-21.2374,14.0727-39.5923,34.4142-45.82,7.6879-2.3537,15.4905-2.004,23.2749-1.7906,4.83.1325,6.3771-1.49,6.3209-6.32-.2228-19.1437-.3-38.2944-.0471-57.4374.6167-46.7089,21.0435-82.6858,59.6929-108.4512C139.9155,8.5434,158.1654,3.0045,177.2648,0Zm15.0225,191.46q38.961,0,77.9219-.0048c6.5276-.0029,6.6521-.1289,6.6571-6.799.0138-18.8144.057-37.6291-.0088-56.4433-.1823-52.1111-44.9322-91.0326-96.5631-84.0324-41.0037,5.5594-72.429,41.2484-72.6347,82.6028-.096,19.3135-.0324,38.6278-.02,57.9417.0044,6.5772.1606,6.728,6.7254,6.7307Q153.3265,191.4718,192.2873,191.46Zm.1051,86.7045c-1.9945,0-3.9913-.0572-5.9824.0243a14.64,14.64,0,0,0-2.9364.5245c-17.243,4.3465-28.5365,15.0529-32.153,32.4436-3.5187,16.92,1.9636,31.25,15.8044,41.8682,3.27,2.5087,4.589,5.11,4.5312,9.17-.1967,13.8023-.1122,27.6094-.0564,41.4143.0525,13.0084,8.5417,21.8928,20.7625,21.8551,12.1492-.0375,20.4983-8.9632,20.546-22.0756.049-13.4723.1932-26.9486-.0821-40.4155-.0947-4.6379,1.3994-7.5551,5.118-10.3972a41.4776,41.4776,0,0,0-25.5518-74.4118Z"/></svg>