<svg id="Layer_1" data-name="Layer 1" xmlns="http://www.w3.org/2000/svg" width="366.4807" height="512" viewBox="0 0 366.4807 512"><path d="M366.4764,145.7145a33.1573,33.1573,0,0,1-3.2788,14.8516c-.8561,1.8016-1.5333,3.692-2.4467,5.4621-5.9294,11.4915-5.9962,22.9853.03,34.43,5.1464,9.7734,7.3227,19.9478,4.3637,30.819-2.4188,8.8866-6.6593,16.6393-14.3979,22.0971-2.5362,1.7887-4.9749,3.7167-7.5268,5.4816-9.5665,6.6164-14.0542,15.9355-14.7756,27.3381a88.0877,88.0877,0,0,1-.9992,9.2477c-2.9915,17.5286-18.99,31.53-37.11,32.6789-3.3075.21-6.5975.7434-9.8856,1.2-8.7475,1.2143-15.4186,5.84-20.6676,12.7342-2.082,2.7343-4.1163,5.5057-6.1317,8.2895-10.3143,14.2468-30.4436,20.0117-46.6179,13.31-2.969-1.23-5.9294-2.4925-8.831-3.8719a33.2444,33.2444,0,0,0-29.8378-.0332c-3.3075,1.5585-6.6694,3.0122-10.0586,4.3849-14.8511,6.0147-35.4375.05-44.8288-12.9262q-3.4125-4.7152-6.9094-9.3692c-5.9424-7.9145-13.9291-12.12-23.7258-13.0576-3.4171-.3271-6.8164-.8553-10.237-1.1256C56.2106,326.3592,39.0157,308.8,38.613,291.5487c-.0593-2.5374-.6061-5.06-.8116-7.598-.9742-12.0285-7.2639-20.7052-17.1669-27-8.509-5.4087-15.0218-12.3815-18.2085-22.1217-3.255-9.9486-3.53-19.7917,1.1259-29.4455.5294-1.0976.91-2.2718,1.492-3.3383,6.8842-12.618,6.7479-25.1825-.0915-37.7862A37.6773,37.6773,0,0,1,.75,138.2142c2.0288-10.1127,6.4168-18.8331,15.0235-25.0133,2.3414-1.6813,4.5946-3.49,6.98-5.1053C32.7,101.36,37.3975,91.8139,38.0646,80.0122c.4675-8.2731,1.87-16.2541,6.8533-23.2613C52.7712,45.7077,63.08,39.1226,76.8344,38.37c2.87-.157,5.73-.5757,8.5828-.96,9.231-1.2437,16.2509-6.1085,21.7433-13.4171,1.7316-2.3042,3.5818-4.5444,5.0762-6.9975C120.7856,2.9617,144.7312-5.376,162.553,4.1472c2.2423,1.1982,4.6546,2.0766,6.98,3.12a32.038,32.038,0,0,0,27.3712.0263c2.7306-1.2245,5.4926-2.3787,8.2261-3.597,15.2287-6.7876,29.1761-3.8309,42.2159,5.6267,4.2136,3.0561,6.8309,7.54,9.7443,11.7051,6.01,8.5921,13.3667,15.1059,24.2549,16.4413,4.3974.5394,8.8017,1.0229,13.2048,1.5133,16.0558,1.7881,31.8809,18.1864,33.2225,34.3643.311,3.75.8243,7.4835,1.2524,11.2237,1.0714,9.3582,5.643,16.664,13.0929,22.27,2.4805,1.8666,4.9352,3.7736,7.4882,5.5369C361.297,120.4521,365.7833,132.1242,366.4764,145.7145ZM183.05,313.9747c69.4053.7962,130.5124-55.3872,131.0367-129.7559a130.6112,130.6112,0,0,0-130.4737-131.74C112.5946,52.1224,52.61,109.3982,52.4071,182.8255,52.2,257.8495,113.5309,314.5865,183.05,313.9747Z"/><path d="M213.4919,383.812c16.6837,1.6487,31.4686-2.417,44.5891-12.4131a47.3145,47.3145,0,0,0,9.9376-10.6543c2.1006-2.9895,4.3458-5.8794,6.5792-8.7731,2.51-3.2522,5.9615-4.7567,9.9332-5.4839,2.7171-.4974,3.9659.36,4.7941,3.0249,3.584,11.5325,7.3639,23.0043,11.0936,34.4913q13.2936,40.942,26.6063,81.8779a21.0008,21.0008,0,0,1,1.4608,7.4574c-.1667,3.7373-1.9882,5.4078-5.7562,5.153a17.6732,17.6732,0,0,1-6.5925-2.1534q-24.5983-12.1337-49.1929-24.2752c-.9938-.49-1.979-1.0012-2.9919-1.4494-4.0349-1.7854-6.09-1.1393-8.1633,2.7653-5.0407,9.494-10.015,19.0232-15.0189,28.5366q-6.1127,11.6219-12.2393,23.2363a15.3662,15.3662,0,0,1-4.4516,5.721c-2.4949,1.7592-4.7849,1.4589-6.7267-.9054a17.6834,17.6834,0,0,1-3.0516-5.8669Q203.8871,472.01,193.45,439.9265a8.374,8.374,0,0,1,.0257-5.4931q7.7664-23.69,15.3779-47.43C209.6834,384.4029,210.7065,382.67,213.4919,383.812Z"/><path d="M42.7314,457.4816c.107-2.3968,1.1495-5.2245,2.0693-8.0612q16.2575-50.139,32.5228-100.2751c.79-2.4474,2.0274-3.0614,4.381-2.6775,3.97.6476,7.48,2.0587,10.0233,5.3155,2.046,2.62,4.2451,5.15,6.026,7.9433,12.3031,19.2955,39.9487,28.9565,62.8858,22.4946,5.5706-1.5693,10.5877-4.5352,15.9214-6.7179a17.174,17.174,0,0,1,13.53.0259c2.6278,1.0456,3.2564,2.1513,2.3338,4.9261-5.77,17.3558-11.3528,34.7739-17.0034,52.1695q-8.9893,27.6739-17.9892,55.3444a24.241,24.241,0,0,1-2.98,6.6537c-2.202,3.12-5.0793,3.4343-7.9053.88a24.3,24.3,0,0,1-4.9-7.0664q-12.8383-24.4379-25.72-48.8527c-2.9909-5.6558-4.0571-5.9413-9.9385-3.0427q-25.21,12.4242-50.41,24.8674a22.1854,22.1854,0,0,1-6.2088,2.3145C45.0943,464.4157,42.7244,462.3948,42.7314,457.4816Z"/><path d="M161.3972,249.0285c-6.15.0993-12.1958-2.35-17.3621-7.6092-13.67-13.9169-27.5426-27.6351-41.3457-41.4212-7.47-7.4608-9.819-16.248-6.1194-26.1643,3.5741-9.58,11.0481-14.5524,21.0421-15.3074a22.4781,22.4781,0,0,1,18.0565,6.9349q11.5326,11.5109,23.054,23.0327c4.372,4.345,3.4337,4.4747,7.7974.1156q31.76-31.7268,63.5045-63.469c7.2361-7.2177,15.8456-9.6167,25.6047-6.3158,16.189,5.4757,21.4865,26.4326,9.4827,38.5745-28.4435,28.7708-57.1392,57.2925-85.7864,85.8612C174.7166,247.8567,168.7742,249.0606,161.3972,249.0285Z"/></svg>