<svg id="Layer_1" data-name="Layer 1" xmlns="http://www.w3.org/2000/svg" width="1133.507" height="314.617" viewBox="0 0 1133.507 314.617"><defs><style>.cls-1{fill:#2b3a5b;}.cls-2{fill:#bb273c;}</style></defs><path d="M367.8242,94.3149,348.9668,34.3062l-.0879-.3521c0-.4106.2642-.6172.793-.6172H356.81a1.0287,1.0287,0,0,1,1.0576.7051l14.5395,48.73a.2861.2861,0,0,0,.5284,0l14.54-48.7295a.97.97,0,0,1,.9692-.7051h6.9615q.969,0,.7051.9693L377.0767,94.3149a1.0263,1.0263,0,0,1-1.0572.7051h-7.1377A1.0265,1.0265,0,0,1,367.8242,94.3149Z"/><path d="M412.6777,93.1694a18.8869,18.8869,0,0,1-7.666-7.4458,21.9642,21.9642,0,0,1-2.7319-11.059V53.6924a21.7252,21.7252,0,0,1,2.7319-11.0147,18.9757,18.9757,0,0,1,7.666-7.4018,25.9508,25.9508,0,0,1,22.8228,0,18.9925,18.9925,0,0,1,7.6665,7.4018,21.74,21.74,0,0,1,2.7314,11.0147V74.6646a21.9793,21.9793,0,0,1-2.7314,11.059,18.9035,18.9035,0,0,1-7.6665,7.4458,25.9508,25.9508,0,0,1-22.8228,0Zm21.0606-8.3711a13.2223,13.2223,0,0,0,3.7012-9.7812V53.6045a13.493,13.493,0,0,0-3.7012-9.9136,13.0266,13.0266,0,0,0-9.6929-3.7451,12.8762,12.8762,0,0,0-9.6489,3.7451,13.5824,13.5824,0,0,0-3.6572,9.9136V75.0171a13.3085,13.3085,0,0,0,3.6572,9.7812,12.9562,12.9562,0,0,0,9.6489,3.7007A13.1082,13.1082,0,0,0,433.7383,84.7983Z"/><path d="M467.355,93.3018a18.1427,18.1427,0,0,1-7.5781-7.1377,20.7334,20.7334,0,0,1-2.688-10.6182V52.7231a20.2658,20.2658,0,0,1,2.688-10.53,18.3142,18.3142,0,0,1,7.5781-7.0493A24.25,24.25,0,0,1,478.59,32.6323a24.72,24.72,0,0,1,11.1915,2.4229,18.0941,18.0941,0,0,1,7.5336,6.83,19.2377,19.2377,0,0,1,2.688,10.2216v.0879a.9511.9511,0,0,1-.2646.7051.8466.8466,0,0,1-.6167.2642l-6.6968.3525q-.8826,0-.8813-.793V52.459a12.1064,12.1064,0,0,0-3.5249-9.0762,12.9272,12.9272,0,0,0-9.4288-3.437,13.0788,13.0788,0,0,0-9.4726,3.437,12.0234,12.0234,0,0,0-3.5689,9.0762V75.8984a12.0211,12.0211,0,0,0,3.5689,9.0762,13.0806,13.0806,0,0,0,9.4726,3.4365,12.929,12.929,0,0,0,9.4288-3.4365,12.1041,12.1041,0,0,0,3.5249-9.0762v-.1762q0-.7932.8813-.793l6.6968.3521a.78.78,0,0,1,.8813.8813,19.4653,19.4653,0,0,1-2.688,10.2661,18.2741,18.2741,0,0,1-7.5336,6.917,26.5006,26.5006,0,0,1-22.4263-.0439Z"/><path d="M552.3447,40.6509H521.0625a.3118.3118,0,0,0-.3525.3525V59.9487a.3113.3113,0,0,0,.3525.3526h21.501a.78.78,0,0,1,.8808.8813v5.5513a.7789.7789,0,0,1-.8808.8813h-21.501a.3117.3117,0,0,0-.3525.3526V87.3535a.3111.3111,0,0,0,.3525.3526h31.2822a.78.78,0,0,1,.8809.8813v5.5513a.7789.7789,0,0,1-.8809.8813H513.1318a.7787.7787,0,0,1-.8813-.8813v-59.92a.7793.7793,0,0,1,.8813-.8814h39.2129a.78.78,0,0,1,.8809.8814V39.77A.779.779,0,0,1,552.3447,40.6509ZM520.3574,27.3892q-.1772-.3076.1763-.7491l6.9614-9.6049a1.2737,1.2737,0,0,1,1.1455-.5289h7.49a1.2754,1.2754,0,0,1,1.1455.5289l6.9614,9.6049a.7239.7239,0,0,1,.1763.5288.5095.5095,0,0,1-.1763.3526.7194.7194,0,0,1-.5288.1763H538.51a1.1835,1.1835,0,0,1-1.0572-.5289l-4.67-6.6972a.2864.2864,0,0,0-.5288,0l-4.8462,6.6972a1.1881,1.1881,0,0,1-1.0576.5289h-5.2871A.74.74,0,0,1,520.3574,27.3892Z"/><path d="M620.459,33.3369h12.4248a1.0537,1.0537,0,0,1,1.0576,1.0576V93.9624a1.0537,1.0537,0,0,1-1.0576,1.0576H620.3711a1.0537,1.0537,0,0,1-1.0576-1.0576V58.5391c0-.2344-.0586-.3526-.1758-.3526s-.2354.0879-.3525.2642L611.207,70.6113a1.2622,1.2622,0,0,1-1.2334.7046h-6.2568a1.26,1.26,0,0,1-1.2334-.7046l-7.666-12.2485c-.1192-.1763-.2363-.2647-.3526-.2647-.1191,0-.1767.1187-.1767.3526V93.9624a1.0537,1.0537,0,0,1-1.0576,1.0576H580.7178a1.0537,1.0537,0,0,1-1.0576-1.0576V34.3945a1.0537,1.0537,0,0,1,1.0576-1.0576h12.4248a1.3817,1.3817,0,0,1,1.2334.7051l12.249,19.21q.2637.5287.5283,0l12.0723-19.21A1.2623,1.2623,0,0,1,620.459,33.3369Z"/><path d="M653.0176,93.1255a20.5971,20.5971,0,0,1-8.4151-8.063A23.7381,23.7381,0,0,1,641.6064,72.99V55.3667a23.1485,23.1485,0,0,1,2.9961-11.8521,20.7,20.7,0,0,1,8.4151-8.0185,26.4982,26.4982,0,0,1,12.5566-2.8638,26.7661,26.7661,0,0,1,12.6016,2.8638,20.6455,20.6455,0,0,1,8.459,8.0185,23.1672,23.1672,0,0,1,2.9961,11.8521V72.99a23.7572,23.7572,0,0,1-2.9961,12.0723,20.5435,20.5435,0,0,1-8.459,8.063,26.7661,26.7661,0,0,1-12.6016,2.8638A26.4982,26.4982,0,0,1,653.0176,93.1255Zm19.3857-12.3809a10.1693,10.1693,0,0,0,2.6-7.3134V55.19a10.2067,10.2067,0,0,0-2.6-7.2695,8.92,8.92,0,0,0-6.8291-2.7759,8.8133,8.8133,0,0,0-6.7412,2.7759,10.2017,10.2017,0,0,0-2.5986,7.2695V73.4312a10.1644,10.1644,0,0,0,2.5986,7.3134,8.8822,8.8822,0,0,0,6.7412,2.732A8.991,8.991,0,0,0,672.4033,80.7446Z"/><path d="M729.1074,94.2271,718.709,70.7876a.5671.5671,0,0,0-.5283-.3525h-5.8164a.3894.3894,0,0,0-.44.44V93.9624a1.0537,1.0537,0,0,1-1.0576,1.0576H698.3535a1.0537,1.0537,0,0,1-1.0576-1.0576V34.3945a1.0537,1.0537,0,0,1,1.0576-1.0576h26.1719a21.19,21.19,0,0,1,10.2217,2.3794,16.7826,16.7826,0,0,1,6.8291,6.7412A20.2637,20.2637,0,0,1,743.999,52.459a17.854,17.854,0,0,1-2.9082,10.2217,16.367,16.367,0,0,1-8.1064,6.2563.4188.4188,0,0,0-.2647.6167l11.6319,24.2324a1.3632,1.3632,0,0,1,.1757.5288c0,.4712-.3232.7051-.9687.7051H730.3408A1.2452,1.2452,0,0,1,729.1074,94.2271ZM711.9238,46.2905V58.8032a.389.389,0,0,0,.44.4409h9.7812a7.6485,7.6485,0,0,0,5.2871-1.8066,6.1185,6.1185,0,0,0,2.0274-4.8022A6.3624,6.3624,0,0,0,727.4326,47.7a7.5386,7.5386,0,0,0-5.2871-1.85h-9.7812A.3893.3893,0,0,0,711.9238,46.2905Z"/><path d="M791.0537,94.1387l-2.291-7.8423c-.1191-.2344-.2647-.3526-.44-.3526H768.2305c-.1758,0-.3233.1182-.4405.3526l-2.291,7.8423a1.16,1.16,0,0,1-1.2334.8813H750.7832a.9847.9847,0,0,1-.793-.3086.9645.9645,0,0,1-.0879-.9253L768.76,34.2183a1.1064,1.1064,0,0,1,1.1455-.8814H786.56a1.1079,1.1079,0,0,1,1.1455.8814L806.65,93.7861a1.0021,1.0021,0,0,1,.0879.441q0,.7932-.9688.7929H792.2871A1.1586,1.1586,0,0,1,791.0537,94.1387ZM771.667,74.6646h13.13q.5287,0,.3525-.5289l-6.6973-22.6464c-.0585-.2339-.1464-.337-.2636-.3081a.4092.4092,0,0,0-.2647.3081l-6.6084,22.6464Q771.2262,74.6646,771.667,74.6646Z"/><path d="M848.4609,33.6455a1.0192,1.0192,0,0,1,.7491-.3086h12.5127a1.0537,1.0537,0,0,1,1.0576,1.0576V93.9624a1.0537,1.0537,0,0,1-1.0576,1.0576H849.7383a1.2592,1.2592,0,0,1-1.2334-.7051L828.2373,60.6538c-.1182-.1763-.2353-.249-.3525-.22-.1182.03-.1758.1626-.1758.3965l.0879,33.1323a1.0537,1.0537,0,0,1-1.0576,1.0576H814.2266a1.0537,1.0537,0,0,1-1.0577-1.0576V34.3945a1.0537,1.0537,0,0,1,1.0577-1.0576h12.0722a1.2641,1.2641,0,0,1,1.2334.7051l20.18,33.5732c.1172.1763.2344.2505.3526.22s.1757-.1611.1757-.3964l-.0879-33.0445A1.0166,1.0166,0,0,1,848.4609,33.6455Z"/><path d="M871.5479,94.7114a1.0153,1.0153,0,0,1-.3086-.749V34.3945a1.0537,1.0537,0,0,1,1.0576-1.0576h22.4707a29.36,29.36,0,0,1,12.16,2.3794,18.7667,18.7667,0,0,1,8.1953,6.7852A17.9776,17.9776,0,0,1,918.03,52.6353V75.7222a17.9707,17.9707,0,0,1-2.9073,10.1333,18.7571,18.7571,0,0,1-8.1953,6.7851,29.3505,29.3505,0,0,1-12.16,2.3794H872.2969A1.0147,1.0147,0,0,1,871.5479,94.7114Zm14.76-12.2041h9.0762a7.2644,7.2644,0,0,0,5.7285-2.5117,10.2089,10.2089,0,0,0,2.291-6.7407V55.1025a9.7353,9.7353,0,0,0-2.247-6.7412,7.4943,7.4943,0,0,0-5.86-2.5112h-8.9883a.3892.3892,0,0,0-.44.44V82.0664A.389.389,0,0,0,886.3076,82.5073Z"/><path d="M936.1387,93.1255a20.5971,20.5971,0,0,1-8.4151-8.063A23.7381,23.7381,0,0,1,924.7275,72.99V55.3667a23.1485,23.1485,0,0,1,2.9961-11.8521,20.7,20.7,0,0,1,8.4151-8.0185,26.4982,26.4982,0,0,1,12.5566-2.8638,26.7661,26.7661,0,0,1,12.6016,2.8638,20.6455,20.6455,0,0,1,8.459,8.0185,23.1672,23.1672,0,0,1,2.9961,11.8521V72.99a23.7572,23.7572,0,0,1-2.9961,12.0723,20.5435,20.5435,0,0,1-8.459,8.063,26.7661,26.7661,0,0,1-12.6016,2.8638A26.4982,26.4982,0,0,1,936.1387,93.1255Zm19.3857-12.3809a10.1693,10.1693,0,0,0,2.6-7.3134V55.19a10.2067,10.2067,0,0,0-2.6-7.2695,8.92,8.92,0,0,0-6.8291-2.7759,8.8133,8.8133,0,0,0-6.7412,2.7759,10.2017,10.2017,0,0,0-2.5986,7.2695V73.4312a10.1644,10.1644,0,0,0,2.5986,7.3134,8.8822,8.8822,0,0,0,6.7412,2.732A8.991,8.991,0,0,0,955.5244,80.7446Z"/><path d="M350.6851,185.6143a1.0149,1.0149,0,0,1-.3081-.7491V125.2974a1.0528,1.0528,0,0,1,1.0571-1.0577h12.5132a1.0528,1.0528,0,0,1,1.0571,1.0577V172.97a.389.389,0,0,0,.4409.4405h28.11a1.0536,1.0536,0,0,1,1.0571,1.0576v10.3974a1.0536,1.0536,0,0,1-1.0571,1.0577H351.4341A1.0132,1.0132,0,0,1,350.6851,185.6143Z"/><path d="M444.355,136.4443a1.0182,1.0182,0,0,1-.749.3086H415.937a.3892.3892,0,0,0-.4409.44v10.8383a.389.389,0,0,0,.4409.441h17.7114a1.0528,1.0528,0,0,1,1.0577,1.0571v10.31a1.0537,1.0537,0,0,1-1.0577,1.0577H415.937a.3893.3893,0,0,0-.4409.44V172.97a.389.389,0,0,0,.4409.4405h27.669a1.0537,1.0537,0,0,1,1.0576,1.0576v10.3974a1.0537,1.0537,0,0,1-1.0576,1.0577h-41.68a1.0528,1.0528,0,0,1-1.0571-1.0577V125.2974a1.0528,1.0528,0,0,1,1.0571-1.0577h41.68a1.0537,1.0537,0,0,1,1.0576,1.0577v10.3979A1.02,1.02,0,0,1,444.355,136.4443Z"/><path d="M461.978,183.8076a20.3186,20.3186,0,0,1-8.2832-7.9306,23.171,23.171,0,0,1-2.9516-11.8077V146.0054a22.9405,22.9405,0,0,1,2.9516-11.7642,20.4223,20.4223,0,0,1,8.2832-7.8862,26.099,26.099,0,0,1,12.3809-2.82,27.234,27.234,0,0,1,12.3364,2.6875,20.3728,20.3728,0,0,1,8.3272,7.3579,18.9139,18.9139,0,0,1,2.9521,10.3095v.441a1.0528,1.0528,0,0,1-1.0576,1.0571H484.4043a1.0528,1.0528,0,0,1-1.0576-1.0571,7.9863,7.9863,0,0,0-2.4229-5.86,8.8753,8.8753,0,0,0-6.5649-2.4233,8.4989,8.4989,0,0,0-6.521,2.6435,9.6677,9.6677,0,0,0-2.4673,6.8731V164.51a9.1365,9.1365,0,0,0,2.7319,6.874,9.4847,9.4847,0,0,0,6.8731,2.6435,9.1869,9.1869,0,0,0,6.2563-2.0712,7.2445,7.2445,0,0,0,2.3794-5.7715v-2.4678a.39.39,0,0,0-.4409-.44h-8.8115a1.0537,1.0537,0,0,1-1.0576-1.0576v-9.6929a1.0528,1.0528,0,0,1,1.0576-1.0571H496.917a1.0528,1.0528,0,0,1,1.0576,1.0571V164.51a22.53,22.53,0,0,1-2.9521,11.6318,19.929,19.929,0,0,1-8.2832,7.7549,26.79,26.79,0,0,1-12.38,2.7314A26.0814,26.0814,0,0,1,461.978,183.8076Z"/><path d="M542.8276,185.042l-2.2915-7.8428c-.1181-.2344-.2641-.3525-.44-.3525H520.0049c-.1763,0-.3237.1181-.4409.3525l-2.2911,7.8428a1.16,1.16,0,0,1-1.2333.8809H502.5571a.9824.9824,0,0,1-.7929-.3086.9608.9608,0,0,1-.0879-.9248l18.8574-59.5684a1.1065,1.1065,0,0,1,1.1455-.8814h16.6543a1.108,1.108,0,0,1,1.1455.8814L558.4243,184.69a.9888.9888,0,0,1,.0884.44q0,.7925-.9692.793H544.061A1.1591,1.1591,0,0,1,542.8276,185.042Zm-19.3862-19.4746h13.1294q.5288,0,.3525-.5283l-6.6967-22.647q-.0886-.3509-.2647-.3081a.4108.4108,0,0,0-.2641.3081l-6.6089,22.647C523.03,165.3916,523.1465,165.5674,523.4414,165.5674Z"/><path d="M565.252,185.6143a1.015,1.015,0,0,1-.3082-.7491V125.2974a1.053,1.053,0,0,1,1.0572-1.0577h12.5127a1.0537,1.0537,0,0,1,1.0576,1.0577V172.97a.3891.3891,0,0,0,.44.4405h28.11a1.0537,1.0537,0,0,1,1.0576,1.0576v10.3974a1.0537,1.0537,0,0,1-1.0576,1.0577H566.001A1.0132,1.0132,0,0,1,565.252,185.6143Z"/><path d="M656.2334,124.24h12.4248a1.0537,1.0537,0,0,1,1.0576,1.0577v59.5678a1.0537,1.0537,0,0,1-1.0576,1.0577H656.1455a1.0537,1.0537,0,0,1-1.0576-1.0577V149.4419c0-.2344-.0586-.3525-.1758-.3525s-.2353.0878-.3525.2641l-7.5782,12.16a1.2611,1.2611,0,0,1-1.2334.7051h-6.2568a1.2585,1.2585,0,0,1-1.2334-.7051l-7.666-12.2481q-.1786-.2643-.3525-.2646c-.1192,0-.1768.1186-.1768.3525v35.5117a1.0537,1.0537,0,0,1-1.0576,1.0577H616.4922a1.0537,1.0537,0,0,1-1.0576-1.0577V125.2974a1.0537,1.0537,0,0,1,1.0576-1.0577H628.917a1.3817,1.3817,0,0,1,1.2334.7051l12.249,19.21q.2637.5287.5283,0L655,124.9448A1.2623,1.2623,0,0,1,656.2334,124.24Z"/><path d="M721.8379,136.4443a1.02,1.02,0,0,1-.749.3086h-27.67a.3893.3893,0,0,0-.44.44v10.8383a.389.389,0,0,0,.44.441h17.712a1.0528,1.0528,0,0,1,1.0576,1.0571v10.31a1.0537,1.0537,0,0,1-1.0576,1.0577h-17.712a.3894.3894,0,0,0-.44.44V172.97a.3891.3891,0,0,0,.44.4405h27.67a1.052,1.052,0,0,1,1.0566,1.0576v10.3974a1.052,1.052,0,0,1-1.0566,1.0577H679.4082a1.0537,1.0537,0,0,1-1.0576-1.0577V125.2974a1.0537,1.0537,0,0,1,1.0576-1.0577h41.6807a1.052,1.052,0,0,1,1.0566,1.0577v10.3979A1.0189,1.0189,0,0,1,721.8379,136.4443Z"/><path d="M764.4863,124.5483a1.02,1.02,0,0,1,.7491-.3086H777.748a1.0537,1.0537,0,0,1,1.0577,1.0577v59.5678a1.0537,1.0537,0,0,1-1.0577,1.0577H765.7637a1.26,1.26,0,0,1-1.2334-.7051l-20.2676-33.6612c-.1182-.1762-.2354-.249-.3525-.22-.1182.03-.1758.1626-.1758.3965l.0879,33.1323a1.0537,1.0537,0,0,1-1.0577,1.0577H730.252a1.0537,1.0537,0,0,1-1.0577-1.0577V125.2974a1.0537,1.0537,0,0,1,1.0577-1.0577h12.0722a1.2641,1.2641,0,0,1,1.2334.7051l20.18,33.5728c.1172.1767.2344.251.3525.2207s.1758-.1612.1758-.3965l-.0879-33.0444A1.0167,1.0167,0,0,1,764.4863,124.5483Z"/><path d="M832.8652,124.5483a1.02,1.02,0,0,1,.3086.7491v10.4858a1.0537,1.0537,0,0,1-1.0576,1.0576h-15.42a.39.39,0,0,0-.4414.44v47.5839a1.052,1.052,0,0,1-1.0567,1.0577H802.6855a1.0537,1.0537,0,0,1-1.0576-1.0577V137.2813a.39.39,0,0,0-.44-.44H786.2949a1.0537,1.0537,0,0,1-1.0576-1.0576V125.2974a1.0537,1.0537,0,0,1,1.0576-1.0577h45.8213A1.0224,1.0224,0,0,1,832.8652,124.5483Z"/><path d="M883.0049,136.4443a1.02,1.02,0,0,1-.749.3086h-27.67a.3893.3893,0,0,0-.44.44v10.8383a.389.389,0,0,0,.44.441h17.712a1.0528,1.0528,0,0,1,1.0576,1.0571v10.31a1.0537,1.0537,0,0,1-1.0576,1.0577h-17.712a.3894.3894,0,0,0-.44.44V172.97a.3891.3891,0,0,0,.44.4405h27.67a1.052,1.052,0,0,1,1.0566,1.0576v10.3974a1.052,1.052,0,0,1-1.0566,1.0577H840.5752a1.0537,1.0537,0,0,1-1.0576-1.0577V125.2974a1.0537,1.0537,0,0,1,1.0576-1.0577h41.6807a1.052,1.052,0,0,1,1.0566,1.0577v10.3979A1.0189,1.0189,0,0,1,883.0049,136.4443Z"/><path d="M948.08,124.24h6.6963a.78.78,0,0,1,.8818.8814V185.042a.7791.7791,0,0,1-.8818.8809h-6.4326a1.2779,1.2779,0,0,1-1.0577-.6172l-27.581-45.0284c-.0586-.1762-.1465-.249-.2637-.22-.1182.03-.1768.1324-.1768.3086l.0889,44.6763a.7791.7791,0,0,1-.8818.8809h-6.6973a.778.778,0,0,1-.8808-.8809V125.1211a.779.779,0,0,1,.8808-.8814h6.5215a1.2837,1.2837,0,0,1,1.0576.6172l27.4922,45.0288c.0586.1758.1465.25.2647.22.1171-.0284.1757-.1319.1757-.3086l-.0879-44.6758A.78.78,0,0,1,948.08,124.24Z"/><path d="M978.92,184.0723a18.8917,18.8917,0,0,1-7.666-7.4463,21.9676,21.9676,0,0,1-2.7314-11.0586V144.5952a21.7294,21.7294,0,0,1,2.7314-11.0146,18.9784,18.9784,0,0,1,7.666-7.4019,25.9527,25.9527,0,0,1,22.8233,0,18.9908,18.9908,0,0,1,7.666,7.4019,21.74,21.74,0,0,1,2.7314,11.0146v20.9722a21.9778,21.9778,0,0,1-2.7314,11.0586,18.904,18.904,0,0,1-7.666,7.4463,25.9527,25.9527,0,0,1-22.8233,0Zm21.0606-8.3711a13.2219,13.2219,0,0,0,3.7011-9.7813V144.5073a13.491,13.491,0,0,0-3.7011-9.9135,13.0286,13.0286,0,0,0-9.6934-3.7452,12.8751,12.8751,0,0,0-9.6484,3.7452,13.5821,13.5821,0,0,0-3.6573,9.9135V165.92a13.31,13.31,0,0,0,3.6573,9.7813,12.9572,12.9572,0,0,0,9.6484,3.7011A13.1124,13.1124,0,0,0,999.9805,175.7012Z"/><path d="M1032.2744,184.5127a17.22,17.22,0,0,1-7.666-5.9922,15.5209,15.5209,0,0,1-2.6875-9.0762V166.89a.7791.7791,0,0,1,.8809-.8818h6.4326a.78.78,0,0,1,.8818.8818v2.1143a8.8854,8.8854,0,0,0,3.877,7.4024q3.8759,2.9076,10.6621,2.9082,6.0806,0,9.164-2.5557a8.278,8.278,0,0,0,3.085-6.6973,7.14,7.14,0,0,0-1.5869-4.67,15.1218,15.1218,0,0,0-4.626-3.5693,88.8389,88.8389,0,0,0-8.8555-3.9209,89.0847,89.0847,0,0,1-10.1777-4.4942,18.8038,18.8038,0,0,1-6.2129-5.331,13.5326,13.5326,0,0,1-2.4668-8.3277q0-7.5768,5.419-11.896,5.42-4.3161,14.6718-4.3173a27.8841,27.8841,0,0,1,11.4551,2.2026,17.6042,17.6042,0,0,1,7.6221,6.1685,15.9423,15.9423,0,0,1,2.6885,9.164v1.7627a.7792.7792,0,0,1-.8819.8809h-6.6084a.7787.7787,0,0,1-.8818-.8809v-1.3218a9.5147,9.5147,0,0,0-3.6563-7.6225q-3.6576-3.04-10.09-3.04-5.4654,0-8.459,2.2471a7.6031,7.6031,0,0,0-2.9961,6.4771,7.3155,7.3155,0,0,0,1.4981,4.7583,13.0041,13.0041,0,0,0,4.4492,3.3042q2.9517,1.4538,9.0322,3.7451a100.4439,100.4439,0,0,1,10.1338,4.5381,19.364,19.364,0,0,1,6.4326,5.4633,13.59,13.59,0,0,1,2.5557,8.4151A14.8985,14.8985,0,0,1,1059.68,182.09q-5.6836,4.54-15.6406,4.5381A29.9411,29.9411,0,0,1,1032.2744,184.5127Z"/><path d="M393.3789,222.4561H362.0967a.3117.3117,0,0,0-.3526.3525v18.9453a.3113.3113,0,0,0,.3526.3525h21.501a.7794.7794,0,0,1,.8808.8809v5.5518a.7786.7786,0,0,1-.8808.8808h-21.501a.3122.3122,0,0,0-.3526.3526v19.3867a.3114.3114,0,0,0,.3526.3525h31.2822a.7791.7791,0,0,1,.8809.8809v5.5517a.7787.7787,0,0,1-.8809.8809H354.166a.7784.7784,0,0,1-.8813-.8809V216.0234a.7787.7787,0,0,1,.8813-.8808h39.2129a.779.779,0,0,1,.8809.8808v5.5518A.7787.7787,0,0,1,393.3789,222.4561Z"/><path d="M413.249,275.415a17.22,17.22,0,0,1-7.6665-5.9921,15.5245,15.5245,0,0,1-2.6875-9.0762V257.792a.78.78,0,0,1,.8814-.8818h6.4326a.78.78,0,0,1,.8808.8818v2.1143a8.8858,8.8858,0,0,0,3.8775,7.4023q3.8768,2.9077,10.6621,2.9082,6.0806,0,9.1645-2.5557a8.277,8.277,0,0,0,3.084-6.6972,7.1425,7.1425,0,0,0-1.5859-4.67,15.1432,15.1432,0,0,0-4.6265-3.5693,88.8242,88.8242,0,0,0-8.8559-3.9209,89.34,89.34,0,0,1-10.1778-4.4941,18.7907,18.7907,0,0,1-6.2119-5.3311,13.531,13.531,0,0,1-2.4673-8.3271q0-7.5777,5.419-11.8965,5.4192-4.3155,14.6719-4.3174a27.8912,27.8912,0,0,1,11.4555,2.2031,17.6091,17.6091,0,0,1,7.6221,6.168,15.95,15.95,0,0,1,2.6875,9.1641v1.7627a.7786.7786,0,0,1-.8809.8808h-6.6089a.7782.7782,0,0,1-.8813-.8808v-1.3223a9.513,9.513,0,0,0-3.6572-7.6221q-3.657-3.04-10.0894-3.04-5.4645,0-8.4595,2.247a7.6041,7.6041,0,0,0-2.996,6.4766,7.3185,7.3185,0,0,0,1.498,4.7588,13.02,13.02,0,0,0,4.45,3.3047q2.9509,1.4531,9.0322,3.7451a100.0915,100.0915,0,0,1,10.1333,4.5381,19.3666,19.3666,0,0,1,6.4326,5.4629,13.5859,13.5859,0,0,1,2.5557,8.415,14.8988,14.8988,0,0,1-5.6836,12.293q-5.6836,4.54-15.6411,4.5381A29.9345,29.9345,0,0,1,413.249,275.415Z"/><path d="M496.3887,216.0234v5.64a.7789.7789,0,0,1-.8814.8808H478.5884a.3122.3122,0,0,0-.3526.3526v53.0478a.7786.7786,0,0,1-.8808.8809h-6.6973a.778.778,0,0,1-.8808-.8809V222.8965a.3128.3128,0,0,0-.3526-.3526h-16.126a.778.778,0,0,1-.8808-.8808v-5.64a.7784.7784,0,0,1,.8808-.8808h42.209A.7793.7793,0,0,1,496.3887,216.0234Z"/><path d="M538.0684,276.12l-3.1724-10.31a.3456.3456,0,0,0-.3525-.2646H509.7822a.3448.3448,0,0,0-.3525.2646l-3.1719,10.31a1.027,1.027,0,0,1-1.0576.7051h-7.1377q-.9705,0-.7051-.97l19.2984-60.0078a1.0274,1.0274,0,0,1,1.0571-.7051h8.812a1.027,1.027,0,0,1,1.0571.7051l19.4746,60.0078.0879.3525q0,.6181-.7929.6172H539.126A1.027,1.027,0,0,1,538.0684,276.12Zm-26.3916-17.4033a.4219.4219,0,0,0,.3086.1318h20.267a.4243.4243,0,0,0,.3086-.1318.2461.2461,0,0,0,.044-.3086l-10.2217-32.6914a.2861.2861,0,0,0-.5288,0l-10.2217,32.6914A.2442.2442,0,0,0,511.6768,258.7168Z"/><path d="M557.189,275.9443V216.0234a.7787.7787,0,0,1,.8813-.8808h21.3242q9.1641,0,14.6289,4.8017,5.461,4.8048,5.4629,12.8213v26.4356q0,8.02-5.4629,12.8213-5.4668,4.8046-14.6289,4.8027H558.07A.7784.7784,0,0,1,557.189,275.9443Zm8.812-6.4326h13.747a10.8427,10.8427,0,0,0,8.15-3.1289,11.8616,11.8616,0,0,0,3.1289-8.415V234a11.558,11.558,0,0,0-3.041-8.416,10.9637,10.9637,0,0,0-8.2383-3.1279H566.001a.3117.3117,0,0,0-.3526.3525v46.3506A.3114.3114,0,0,0,566.001,269.5117Z"/><path d="M620.1934,274.9746a18.892,18.892,0,0,1-7.6661-7.4463,21.9686,21.9686,0,0,1-2.7314-11.0586V235.498a21.7344,21.7344,0,0,1,2.7314-11.0156,18.9772,18.9772,0,0,1,7.6661-7.4013,25.9516,25.9516,0,0,1,22.8232,0,18.9888,18.9888,0,0,1,7.666,7.4013,21.7436,21.7436,0,0,1,2.7315,11.0156V256.47a21.9779,21.9779,0,0,1-2.7315,11.0586,18.9034,18.9034,0,0,1-7.666,7.4463,25.9516,25.9516,0,0,1-22.8232,0Zm21.0605-8.3711a13.2213,13.2213,0,0,0,3.7012-9.7812V235.4092a13.49,13.49,0,0,0-3.7012-9.9131,13.0285,13.0285,0,0,0-9.6934-3.7451,12.875,12.875,0,0,0-9.6484,3.7451,13.5819,13.5819,0,0,0-3.6572,9.9131v21.4131a13.31,13.31,0,0,0,3.6572,9.7812,12.9573,12.9573,0,0,0,9.6484,3.7012A13.1125,13.1125,0,0,0,641.2539,266.6035Z"/><path d="M673.5488,275.415a17.2188,17.2188,0,0,1-7.666-5.9921,15.5209,15.5209,0,0,1-2.6875-9.0762V257.792a.7791.7791,0,0,1,.8809-.8818h6.4326a.78.78,0,0,1,.8818.8818v2.1143a8.8853,8.8853,0,0,0,3.877,7.4023q3.876,2.9077,10.6621,2.9082,6.0805,0,9.1641-2.5557a8.278,8.278,0,0,0,3.0849-6.6972,7.1406,7.1406,0,0,0-1.5869-4.67,15.1221,15.1221,0,0,0-4.626-3.5693,88.8586,88.8586,0,0,0-8.8554-3.9209,89.2593,89.2593,0,0,1-10.1778-4.4941,18.7993,18.7993,0,0,1-6.2129-5.3311,13.5308,13.5308,0,0,1-2.4668-8.3271q0-7.5777,5.419-11.8965,5.42-4.3155,14.6719-4.3174a27.8855,27.8855,0,0,1,11.455,2.2031,17.6,17.6,0,0,1,7.6221,6.168,15.9435,15.9435,0,0,1,2.6885,9.1641v1.7627a.7791.7791,0,0,1-.8819.8808h-6.6084a.7788.7788,0,0,1-.8818-.8808v-1.3223a9.5149,9.5149,0,0,0-3.6562-7.6221q-3.6577-3.04-10.09-3.04-5.4653,0-8.459,2.247a7.6029,7.6029,0,0,0-2.9961,6.4766,7.3158,7.3158,0,0,0,1.4981,4.7588,13.01,13.01,0,0,0,4.4492,3.3047q2.9517,1.4531,9.0322,3.7451a100.1068,100.1068,0,0,1,10.1338,4.5381,19.3617,19.3617,0,0,1,6.4326,5.4629,13.5891,13.5891,0,0,1,2.5557,8.415,14.8988,14.8988,0,0,1-5.6836,12.293q-5.6837,4.54-15.6406,4.5381A29.9414,29.9414,0,0,1,673.5488,275.415Z"/><path d="M745.4531,275.0186a18.4264,18.4264,0,0,1-7.622-7.1377,20.4716,20.4716,0,0,1-2.7325-10.6182V216.0234a.7791.7791,0,0,1,.8819-.8808h6.6972a.7792.7792,0,0,1,.8809.8808V257.44a12.26,12.26,0,0,0,3.6572,9.2519,13.1924,13.1924,0,0,0,9.5606,3.5254,13.0457,13.0457,0,0,0,9.5166-3.5254,12.3424,12.3424,0,0,0,3.6133-9.2519V216.0234a.7784.7784,0,0,1,.8808-.8808h6.6973a.7792.7792,0,0,1,.8808.8808v41.2393a20.7506,20.7506,0,0,1-2.6875,10.6182,18.1508,18.1508,0,0,1-7.5781,7.1377,26.78,26.78,0,0,1-22.6465,0Z"/><path d="M829.3857,215.1426h6.6963a.78.78,0,0,1,.8819.8808v59.9209a.7792.7792,0,0,1-.8819.8809h-6.4326a1.2777,1.2777,0,0,1-1.0576-.6172L801.0107,231.18q-.0879-.2637-.2636-.22c-.1182.03-.1768.1318-.1768.3076l.0889,44.6767a.7792.7792,0,0,1-.8819.8809H793.08a.7781.7781,0,0,1-.8809-.8809V216.0234a.7784.7784,0,0,1,.8809-.8808h6.5215a1.2837,1.2837,0,0,1,1.0576.6162l27.4922,45.0293c.0586.1758.1465.25.2646.22.1172-.0283.1758-.1318.1758-.3086l-.0879-44.6758A.7791.7791,0,0,1,829.3857,215.1426Z"/><path d="M851.502,275.9443V216.0234a.7784.7784,0,0,1,.8808-.8808H859.08a.78.78,0,0,1,.8818.8808v59.9209a.7791.7791,0,0,1-.8818.8809h-6.6973A.778.778,0,0,1,851.502,275.9443Z"/><path d="M874.4121,275.9443V216.0234a.7784.7784,0,0,1,.8809-.8808h21.3252q9.164,0,14.6279,4.8017,5.4624,4.8048,5.4629,12.8213v26.4356q0,8.02-5.4629,12.8213-5.4654,4.8046-14.6279,4.8027H875.293A.7781.7781,0,0,1,874.4121,275.9443Zm8.8115-6.4326h13.7471a10.8413,10.8413,0,0,0,8.15-3.1289,11.8581,11.8581,0,0,0,3.1289-8.415V234a11.562,11.562,0,0,0-3.04-8.416,10.9648,10.9648,0,0,0-8.2393-3.1279H883.2236a.311.311,0,0,0-.3515.3525v46.3506A.3106.3106,0,0,0,883.2236,269.5117Z"/><path d="M937.416,274.9746a18.8917,18.8917,0,0,1-7.666-7.4463,21.9676,21.9676,0,0,1-2.7314-11.0586V235.498a21.7334,21.7334,0,0,1,2.7314-11.0156,18.9769,18.9769,0,0,1,7.666-7.4013,25.9518,25.9518,0,0,1,22.8233,0,18.9894,18.9894,0,0,1,7.666,7.4013,21.7435,21.7435,0,0,1,2.7314,11.0156V256.47a21.9778,21.9778,0,0,1-2.7314,11.0586,18.904,18.904,0,0,1-7.666,7.4463,25.9518,25.9518,0,0,1-22.8233,0Zm21.0606-8.3711a13.2216,13.2216,0,0,0,3.7011-9.7812V235.4092a13.4908,13.4908,0,0,0-3.7011-9.9131,13.0287,13.0287,0,0,0-9.6934-3.7451,12.875,12.875,0,0,0-9.6484,3.7451,13.5819,13.5819,0,0,0-3.6573,9.9131v21.4131a13.31,13.31,0,0,0,3.6573,9.7812,12.9573,12.9573,0,0,0,9.6484,3.7012A13.1126,13.1126,0,0,0,958.4766,266.6035Z"/><path d="M990.7715,275.415a17.2182,17.2182,0,0,1-7.666-5.9921,15.5209,15.5209,0,0,1-2.6875-9.0762V257.792a.7791.7791,0,0,1,.8808-.8818h6.4326a.78.78,0,0,1,.8819.8818v2.1143a8.8855,8.8855,0,0,0,3.8769,7.4023q3.876,2.9077,10.6621,2.9082,6.0807,0,9.1641-2.5557a8.2778,8.2778,0,0,0,3.085-6.6972,7.1406,7.1406,0,0,0-1.5869-4.67,15.1245,15.1245,0,0,0-4.626-3.5693,88.8624,88.8624,0,0,0-8.8555-3.9209,89.2566,89.2566,0,0,1-10.1777-4.4941,18.7973,18.7973,0,0,1-6.2129-5.3311,13.5308,13.5308,0,0,1-2.4668-8.3271q0-7.5777,5.4189-11.8965,5.42-4.3155,14.6719-4.3174a27.886,27.886,0,0,1,11.4551,2.2031,17.601,17.601,0,0,1,7.6221,6.168,15.9442,15.9442,0,0,1,2.6884,9.1641v1.7627a.7791.7791,0,0,1-.8818.8808h-6.6084a.7787.7787,0,0,1-.8818-.8808v-1.3223a9.515,9.515,0,0,0-3.6563-7.6221q-3.6578-3.04-10.09-3.04-5.4654,0-8.459,2.247a7.6027,7.6027,0,0,0-2.9961,6.4766,7.3157,7.3157,0,0,0,1.498,4.7588,13.0114,13.0114,0,0,0,4.4493,3.3047q2.9516,1.4531,9.0322,3.7451a100.117,100.117,0,0,1,10.1338,4.5381,19.3627,19.3627,0,0,1,6.4326,5.4629,13.59,13.59,0,0,1,2.5557,8.415,14.8991,14.8991,0,0,1-5.6836,12.293q-5.6836,4.54-15.6407,4.5381A29.94,29.94,0,0,1,990.7715,275.415Z"/><path class="cls-1" d="M132.7963,270.3119c-4.6374-1.9964-7.1612-5.8446-10.2369-8.8814Q90.9361,230.2077,59.602,198.6921c-13.4315-13.4271-22.7981-28.6806-21.7129-48.61.7189-13.203,4.6552-25.4267,13.9225-34.8733,26.7164-27.2332,53.4409-54.49,81.0661-80.7884,17.6761-16.8271,39.3775-19.5664,61.4229-9.7254,22.4418,10.0179,34.3474,28.4081,34.55,53.1182a53.72,53.72,0,0,1-15.4984,38.7146c-23.7164,24.7394-48.3493,48.5587-72.4636,72.8971-8.0341,8.1088-15.2,16.7767-18.2049,28.0877-4.6068,17.34-1.2836,33.33,8.5244,48.1536C131.9858,266.8407,133.3583,267.79,132.7963,270.3119ZM190.7587,98.0513a3.31,3.31,0,0,0,.0925-3.9622c-5.2609-9.7689-3.9251-17.3226,6.9152-22.0623,1.1561-.5055,2.9707-1.489,2.1522-3.3147-.6211-1.3855-2.2939-.8434-3.5317-.9048-13.7153-.68-13.6959-.68-18.4062-13.289-.4642-1.2428-.21-3.4132-2.296-3.217-1.4094.1325-1.8239,1.8294-1.9786,3.0514-1.3922,10.9944-7.2666,15.6983-18.3756,13.495-1.2927-.2564-3.31-.5736-3.8238,1.2429-.4247,1.5031,1.3773,1.98,2.3568,2.7221,10.9639,8.303,10.9654,8.2947,7.3014,21.0719-.3951,1.3777-1.5177,3.028-.2049,4.14,1.4326,1.2141,2.6884-.4129,3.8428-1.1928a74.91,74.91,0,0,0,6.7523-4.8548c2.8816-2.4547,5.3657-2.3615,8.3669-.0307C183.3309,93.5941,186.62,96.5756,190.7587,98.0513Z"/><path class="cls-2" d="M255.9969,73.0366c16,14.3552,29.559,28.6456,32.0388,50.1014,2.1239,18.3771-2.6759,34.3469-15.9849,47.6146-25.0554,24.9773-49.8625,50.2044-74.9929,75.1055-16.4695,16.3193-36.2623,19.5795-58.05,13.4059-4.0754-1.1547-8.0019-9.6759-6.6489-13.8046.7536-2.3,2.6545-2.4577,4.4926-2.3681,20.7437,1.0106,36.2944-8.61,50.2065-23.0383,21.21-21.9964,43.12-43.3176,64.7517-64.9069,20.9493-20.9083,23.6673-51.2968,6.7475-75.5527A10.3154,10.3154,0,0,1,255.9969,73.0366Z"/><path class="cls-2" d="M293.0152,110.4056c13.4433,11.3388,23.53,23.1292,27.21,39.4206,5.99,26.5228-4.584,46.6249-23.611,64.2012-15.7656,14.5636-30.54,30.1991-45.7959,45.3165-7.6226,7.5532-14.98,15.4275-23.0823,22.4333-26.04,22.515-62.8417,15.4627-82.6388-6.22-1.1188-1.2254-3.5113-2.6441-1.9028-4.54,1.3213-1.5569,3.0061.4158,4.4026,1.1072,24.1471,11.9559,47.7063,7.5558,66.5742-10.5608,25.7858-24.7589,50.7612-50.3667,75.9075-75.7852,16.8129-16.9949,19.8723-45.1888,7.6258-65.8792C296.1731,117.3126,293.97,115.0023,293.0152,110.4056Z"/><path class="cls-2" d="M228.36,45.2437c14.2483,12.5546,24.7513,26.73,26.4523,46.0523,1.7412,19.7787-4.9521,35.8518-19.3856,49.7409-22.7953,21.9352-44.6834,44.8127-66.9751,67.2719-7.7835,7.842-16.5329,14.2723-27.1111,17.8576-2.3537.7978-5.1085,2.6212-7.2558.2858-1.8566-2.0194-.2971-4.578.4924-6.8094a61.706,61.706,0,0,1,15.1437-23.6069c23.1738-22.9168,45.59-46.6323,69.3688-68.8956,24.09-22.5546,27.4412-54.8525,9.0438-78.98C227.6771,47.5625,227.3484,46.9161,228.36,45.2437Z"/></svg>