<svg id="Layer_1" data-name="Layer 1" xmlns="http://www.w3.org/2000/svg" width="1133.507" height="314.617" viewBox="0 0 1133.507 314.617"><defs><style>.cls-1{fill:#fff;}.cls-2{fill:#447197;}.cls-3{fill:#9f2531;}</style></defs><path class="cls-1" d="M483.2064,111.1587l-15.71-49.9924-.0733-.2933c0-.3421.22-.5142.6607-.5142H474.03a.8572.8572,0,0,1,.8811.5874l12.1131,40.5963a.2384.2384,0,0,0,.44,0l12.1131-40.5959a.8081.8081,0,0,1,.8074-.5874h5.8q.8073,0,.5874.8075l-15.8574,49.992a.855.855,0,0,1-.8808.5874H484.088A.8551.8551,0,0,1,483.2064,111.1587Z"/><path class="cls-1" d="M520.5732,110.2044a15.7338,15.7338,0,0,1-6.3864-6.203,18.2967,18.2967,0,0,1-2.2759-9.2131V77.3167a18.098,18.098,0,0,1,2.2759-9.1762,15.8084,15.8084,0,0,1,6.3864-6.1664,21.62,21.62,0,0,1,19.0134,0,15.8227,15.8227,0,0,1,6.3868,6.1664,18.11,18.11,0,0,1,2.2755,9.1762V94.7883a18.3107,18.3107,0,0,1-2.2755,9.2131,15.7466,15.7466,0,0,1-6.3868,6.203A21.6187,21.6187,0,0,1,520.5732,110.2044Zm17.5453-6.9738a11.0159,11.0159,0,0,0,3.0835-8.1486V77.2434a11.2405,11.2405,0,0,0-3.0835-8.2588,10.8518,10.8518,0,0,0-8.075-3.12,10.7266,10.7266,0,0,0-8.0384,3.12,11.3153,11.3153,0,0,0-3.0468,8.2588V95.082a11.0874,11.0874,0,0,0,3.0468,8.1486,10.7941,10.7941,0,0,0,8.0384,3.083A10.92,10.92,0,0,0,538.1185,103.2306Z"/><path class="cls-1" d="M566.1241,110.3145a15.1137,15.1137,0,0,1-6.3132-5.9463,17.2725,17.2725,0,0,1-2.2393-8.8459V76.5092a16.8823,16.8823,0,0,1,2.2393-8.7724,15.2566,15.2566,0,0,1,6.3132-5.8727,20.2019,20.2019,0,0,1,9.36-2.0923,20.5939,20.5939,0,0,1,9.3233,2.0185,15.074,15.074,0,0,1,6.2761,5.69,16.0282,16.0282,0,0,1,2.2394,8.5155v.0732a.7933.7933,0,0,1-.2205.5875.7057.7057,0,0,1-.5137.22l-5.579.2936q-.7353,0-.7342-.6606v-.22a10.0856,10.0856,0,0,0-2.9366-7.5612,10.7693,10.7693,0,0,0-7.8549-2.8633,10.8958,10.8958,0,0,0-7.8915,2.8633,10.0173,10.0173,0,0,0-2.9732,7.5612V95.8162a10.0137,10.0137,0,0,0,2.9732,7.5612,10.8969,10.8969,0,0,0,7.8915,2.8629,10.77,10.77,0,0,0,7.8549-2.8629,10.0829,10.0829,0,0,0,2.9366-7.5612v-.1468q0-.6609.7342-.6607l5.579.2934a.65.65,0,0,1,.7342.7342,16.2165,16.2165,0,0,1-2.2394,8.5525,15.2229,15.2229,0,0,1-6.2761,5.7625,22.077,22.077,0,0,1-18.683-.0366Z"/><path class="cls-1" d="M636.9279,66.452H610.8671a.26.26,0,0,0-.2936.2214.2645.2645,0,0,0,0,.0722V82.5287a.26.26,0,0,0,.22.2937h0a.2556.2556,0,0,0,.0741,0H628.78a.65.65,0,0,1,.7339.7342v4.6248a.6486.6486,0,0,1-.7339.7342H610.8672a.26.26,0,0,0-.2937.2205.2639.2639,0,0,0,0,.0732v16.15a.2592.2592,0,0,0,.2937.2937h26.0607a.65.65,0,0,1,.734.7342v4.6247a.6488.6488,0,0,1-.734.7342H604.26a.6487.6487,0,0,1-.7342-.7342V61.0934a.6491.6491,0,0,1,.7342-.7343h32.6677a.65.65,0,0,1,.7339.7343v4.6247a.649.649,0,0,1-.7339.7339ZM610.28,55.4038q-.1476-.256.1469-.624l5.7994-8.0017a1.0613,1.0613,0,0,1,.9543-.4407h6.24a1.0624,1.0624,0,0,1,.9543.4407l5.8,8.0017a.6044.6044,0,0,1,.1468.4405.426.426,0,0,1-.1468.2938.5991.5991,0,0,1-.4406.1468h-4.331a.9858.9858,0,0,1-.8808-.4406L620.632,49.641a.2386.2386,0,0,0-.44,0l-4.0387,5.579a.99.99,0,0,1-.8811.4406h-4.4046A.6163.6163,0,0,1,610.28,55.4038Z"/><path class="cls-1" d="M693.6729,60.3588h10.351a.8778.8778,0,0,1,.881.8746h0v49.6317a.8777.8777,0,0,1-.8743.8811H693.6a.8779.8779,0,0,1-.8811-.8746V81.3544c0-.1953-.0489-.2938-.1465-.2938s-.1961.0733-.2937.22l-6.3132,10.1311a1.0519,1.0519,0,0,1-1.0276.587h-5.2124a1.05,1.05,0,0,1-1.0276-.587l-6.3864-10.204c-.0993-.1469-.1969-.2206-.2937-.2206-.0992,0-.1473.0989-.1473.2938v29.5843a.8777.8777,0,0,1-.8742.8811H660.5651a.8779.8779,0,0,1-.8811-.8746V61.24a.8779.8779,0,0,1,.8746-.881h10.3576a1.1509,1.1509,0,0,1,1.0275.5874L682.1482,76.95q.22.4406.44,0l10.0573-16.0036A1.0515,1.0515,0,0,1,693.6729,60.3588Z"/><path class="cls-1" d="M720.7971,110.1678a17.1588,17.1588,0,0,1-7.01-6.7171,19.7774,19.7774,0,0,1-2.496-10.0575V78.7115a19.284,19.284,0,0,1,2.496-9.8738,17.245,17.245,0,0,1,7.01-6.68,22.0758,22.0758,0,0,1,10.4607-2.3858,22.2985,22.2985,0,0,1,10.4982,2.3858,17.1993,17.1993,0,0,1,7.0472,6.68,19.3,19.3,0,0,1,2.4962,9.8738V93.3932a19.7916,19.7916,0,0,1-2.4959,10.0573,17.1159,17.1159,0,0,1-7.0472,6.7172,22.3,22.3,0,0,1-10.4982,2.3858A22.0748,22.0748,0,0,1,720.7971,110.1678Zm16.15-10.3143a8.4709,8.4709,0,0,0,2.1661-6.0927V78.5643a8.5024,8.5024,0,0,0-2.1661-6.0565,7.4308,7.4308,0,0,0-5.6892-2.3126,7.3418,7.3418,0,0,0-5.616,2.3126,8.4988,8.4988,0,0,0-2.1648,6.0565V93.7611a8.4678,8.4678,0,0,0,2.1648,6.0927,7.3992,7.3992,0,0,0,5.616,2.276,7.49,7.49,0,0,0,5.6892-2.276Z"/><path class="cls-1" d="M784.1864,111.0856l-8.6628-19.5272a.4724.4724,0,0,0-.44-.2936H770.238a.3241.3241,0,0,0-.3664.2754h0a.32.32,0,0,0,0,.0906V110.865a.8778.8778,0,0,1-.8745.8811H758.5656a.8778.8778,0,0,1-.8811-.8745h0V61.24a.8779.8779,0,0,1,.8747-.881h21.81a17.653,17.653,0,0,1,8.5155,1.9822,13.9821,13.9821,0,0,1,5.6893,5.616,16.88,16.88,0,0,1,2.0183,8.3321,14.8728,14.8728,0,0,1-2.4227,8.5156,13.6342,13.6342,0,0,1-6.7533,5.212.3494.3494,0,0,0-.2206.5138l9.69,20.1877a1.1349,1.1349,0,0,1,.1465.4405c0,.3926-.2693.5874-.807.5874H785.2143A1.0375,1.0375,0,0,1,784.1864,111.0856ZM769.871,71.15V81.5744a.3241.3241,0,0,0,.3665.3673h8.1485a6.372,6.372,0,0,0,4.4048-1.505,5.0975,5.0975,0,0,0,1.689-4.0007,5.3006,5.3006,0,0,0-1.6886-4.1115,6.28,6.28,0,0,0-4.4046-1.5412H770.238a.3243.3243,0,0,0-.367.2751h0A.32.32,0,0,0,769.871,71.15Z"/><path class="cls-1" d="M835.793,111.0119l-1.9086-6.5333c-.0992-.1953-.2205-.2937-.3666-.2937H816.7793c-.1463,0-.2693.0984-.3665.2937l-1.9086,6.5333a.9667.9667,0,0,1-1.0276.7342H802.2442a.82.82,0,0,1-.6606-.2571.8033.8033,0,0,1-.0733-.7708l15.71-49.6251a.922.922,0,0,1,.9544-.7343h13.8746a.9232.9232,0,0,1,.9543.7343l15.7824,49.6251a.8357.8357,0,0,1,.0732.3674q0,.6608-.8071.66H836.8205A.9653.9653,0,0,1,835.793,111.0119ZM819.6422,94.7883h10.9384q.44,0,.2937-.4406l-5.5794-18.8664c-.0487-.1949-.122-.2808-.22-.2567a.3411.3411,0,0,0-.2206.2567l-5.5053,18.8664Q819.2749,94.7883,819.6422,94.7883Z"/><path class="cls-1" d="M883.6184,60.6159a.8493.8493,0,0,1,.624-.2571h10.4242a.8778.8778,0,0,1,.8811.8745v0h0v49.6317a.8777.8777,0,0,1-.8745.8811h-9.9908a1.049,1.049,0,0,1-1.0276-.5874L866.77,83.1161c-.0985-.1469-.1961-.2074-.2937-.1833s-.1464.1355-.1464.33l.0732,27.6021a.8778.8778,0,0,1-.8744.8811h-10.43a.8777.8777,0,0,1-.8811-.8742V61.24a.8779.8779,0,0,1,.8746-.881h10.0637a1.0531,1.0531,0,0,1,1.0276.5874l16.8116,27.9694c.0977.1468.1953.2082.2938.1832s.1465-.1342.1465-.33l-.0732-27.529A.8473.8473,0,0,1,883.6184,60.6159Z"/><path class="cls-1" d="M902.8516,111.4892a.847.847,0,0,1-.2571-.624V61.24a.8781.8781,0,0,1,.8749-.881h18.7265a24.4609,24.4609,0,0,1,10.13,1.9822,15.6343,15.6343,0,0,1,6.8274,5.6527,14.9762,14.9762,0,0,1,2.4218,8.4423V95.6694a14.97,14.97,0,0,1-2.422,8.4419,15.6256,15.6256,0,0,1-6.8275,5.6526,24.4494,24.4494,0,0,1-10.13,1.9822h-18.72A.8453.8453,0,0,1,902.8516,111.4892Zm12.2964-10.1671h7.5612a6.0517,6.0517,0,0,0,4.7724-2.0924,8.5049,8.5049,0,0,0,1.9087-5.6156V78.4914a8.11,8.11,0,0,0-1.8721-5.616,6.2427,6.2427,0,0,0-4.8817-2.092h-7.488a.3242.3242,0,0,0-.3665.2754h0a.3226.3226,0,0,0,0,.091v29.8047a.324.324,0,0,0,.274.3672h0a.3282.3282,0,0,0,.0918,0Z"/><path class="cls-1" d="M956.6613,110.1678a17.1588,17.1588,0,0,1-7.01-6.7171,19.7774,19.7774,0,0,1-2.496-10.0575V78.7115a19.285,19.285,0,0,1,2.496-9.8738,17.245,17.245,0,0,1,7.01-6.68,22.0758,22.0758,0,0,1,10.4607-2.3858,22.2988,22.2988,0,0,1,10.498,2.3857,17.201,17.201,0,0,1,7.0471,6.68,19.303,19.303,0,0,1,2.496,9.8738V93.3932a19.7907,19.7907,0,0,1-2.496,10.0573,17.1151,17.1151,0,0,1-7.0471,6.7172,22.3,22.3,0,0,1-10.4982,2.3858A22.0761,22.0761,0,0,1,956.6613,110.1678Zm16.15-10.3143a8.4714,8.4714,0,0,0,2.1661-6.0927V78.5643a8.5024,8.5024,0,0,0-2.1661-6.0565,7.4308,7.4308,0,0,0-5.6892-2.3126,7.3425,7.3425,0,0,0-5.6161,2.3126,8.4993,8.4993,0,0,0-2.1648,6.0565V93.7611a8.4687,8.4687,0,0,0,2.1648,6.0927,7.3994,7.3994,0,0,0,5.6161,2.276,7.49,7.49,0,0,0,5.6892-2.276Z"/><path class="cls-1" d="M468.9281,187.219a.8453.8453,0,0,1-.2567-.6241V136.97a.8771.8771,0,0,1,.873-.8812h10.4322a.8772.8772,0,0,1,.8807.8735h0v39.7231a.324.324,0,0,0,.3673.3665h23.418a.878.878,0,0,1,.8807.8748v8.6682a.8777.8777,0,0,1-.8742.8811h-35.097A.8442.8442,0,0,1,468.9281,187.219Z"/><path class="cls-1" d="M546.9632,146.2561a.8476.8476,0,0,1-.624.2571H523.2885a.3245.3245,0,0,0-.3672.2752.3331.3331,0,0,0,0,.0914v9.03a.324.324,0,0,0,.3673.3674h14.7552a.8772.8772,0,0,1,.8812.873h0v8.5968a.8777.8777,0,0,1-.8743.8811H523.2886a.3251.3251,0,0,0-.3672.2762.339.339,0,0,0,0,.09v9.6913a.3241.3241,0,0,0,.3674.3665H546.34a.8779.8779,0,0,1,.881.8746v8.6686a.8778.8778,0,0,1-.8742.8812h-34.73a.8772.8772,0,0,1-.8807-.8735h0V136.97a.8772.8772,0,0,1,.873-.8812H546.34a.8779.8779,0,0,1,.8811.8746v8.6691A.85.85,0,0,1,546.9632,146.2561Z"/><path class="cls-1" d="M561.6446,185.7138a16.927,16.927,0,0,1-6.9006-6.6069,19.3021,19.3021,0,0,1-2.4589-9.8368V154.2213a19.1114,19.1114,0,0,1,2.4589-9.8006,17.0145,17.0145,0,0,1,6.9006-6.57,21.7438,21.7438,0,0,1,10.3144-2.3494,22.6888,22.6888,0,0,1,10.2773,2.239,16.9721,16.9721,0,0,1,6.9373,6.13,15.7588,15.7588,0,0,1,2.4594,8.5887v.3674a.8773.8773,0,0,1-.8736.8807H580.3277a.8771.8771,0,0,1-.8811-.8731h0v-.0076a6.6535,6.6535,0,0,0-2.0185-4.8819,7.3946,7.3946,0,0,0-5.4691-2.0188,7.08,7.08,0,0,0-5.4326,2.2023,8.054,8.054,0,0,0-2.0555,5.7258v15.7835a7.6113,7.6113,0,0,0,2.2759,5.7267,7.9012,7.9012,0,0,0,5.7259,2.2022,7.6537,7.6537,0,0,0,5.2121-1.7255,6.0348,6.0348,0,0,0,1.9821-4.8081v-2.0559a.325.325,0,0,0-.2768-.3667.3315.3315,0,0,0-.09,0h-7.3408a.8779.8779,0,0,1-.8811-.8745v0h0v-8.0815a.8772.8772,0,0,1,.8735-.8807h18.8a.8772.8772,0,0,1,.881.873h0v9.9909a18.7675,18.7675,0,0,1-2.4593,9.69,16.6019,16.6019,0,0,1-6.9005,6.46,22.3149,22.3149,0,0,1-10.3136,2.2755A21.7251,21.7251,0,0,1,561.6446,185.7138Z"/><path class="cls-1" d="M628.9993,186.7418l-1.909-6.5337c-.0984-.1953-.22-.2936-.3665-.2936H609.986c-.1468,0-.27.0983-.3673.2936l-1.9087,6.5337a.966.966,0,0,1-1.0274.7339H595.4505a.8179.8179,0,0,1-.6605-.2571.8.8,0,0,1-.0732-.77l15.71-49.6249a.9216.9216,0,0,1,.9543-.7342h13.8744a.923.923,0,0,1,.9543.7342L641.9929,186.45a.8233.8233,0,0,1,.0736.3665q0,.66-.8073.6607H630.027A.9659.9659,0,0,1,628.9993,186.7418Zm-16.15-16.2236h10.9384q.44,0,.2937-.44l-5.579-18.8669q-.0738-.2922-.2205-.2566a.3418.3418,0,0,0-.22.2566l-5.5058,18.8669c-.0491.2937.0479.44.2935.44Z"/><path class="cls-1" d="M647.6808,187.219a.8458.8458,0,0,1-.2568-.6241V136.97a.8772.8772,0,0,1,.8732-.8812h10.4317a.8781.8781,0,0,1,.8811.8748h0v39.7215a.324.324,0,0,0,.2746.3666h0a.3275.3275,0,0,0,.0917,0h23.418a.8777.8777,0,0,1,.881.8746h0v8.6685a.8777.8777,0,0,1-.8742.8811H648.3049A.843.843,0,0,1,647.6808,187.219Z"/><path class="cls-1" d="M723.4761,136.0889H733.827a.8778.8778,0,0,1,.8811.8745h0v49.6317a.8777.8777,0,0,1-.8742.8812H723.403a.8779.8779,0,0,1-.8811-.8746V157.084c0-.1953-.0489-.2937-.1465-.2937s-.196.0732-.2936.22l-6.3131,10.13a1.051,1.051,0,0,1-1.0276.5874h-5.2126a1.0484,1.0484,0,0,1-1.0275-.5874l-6.3865-10.2037q-.1488-.22-.2935-.22c-.0993,0-.1473.0988-.1473.2937v29.5843a.8778.8778,0,0,1-.8745.8811h-10.431a.8778.8778,0,0,1-.881-.8745V136.97a.8781.8781,0,0,1,.8746-.8812h10.3576a1.1514,1.1514,0,0,1,1.0275.5874L711.9514,152.68q.22.4406.44,0l10.0573-16.0036A1.052,1.052,0,0,1,723.4761,136.0889Z"/><path class="cls-1" d="M778.13,146.2561a.85.85,0,0,1-.624.2571H754.4548a.3244.3244,0,0,0-.3666.2757.33.33,0,0,0,0,.0909v9.03a.324.324,0,0,0,.3666.3674h14.7559a.8771.8771,0,0,1,.8811.8731h0v8.5967a.878.878,0,0,1-.8745.8812H754.4548a.3244.3244,0,0,0-.3666.2758.328.328,0,0,0,0,.0907v9.6913a.3241.3241,0,0,0,.2749.3666.3275.3275,0,0,0,.0917,0h23.0515a.8761.8761,0,0,1,.88.8723v8.6707a.8765.8765,0,0,1-.8716.8811h-34.732a.8778.8778,0,0,1-.8811-.8745h0V136.97a.8779.8779,0,0,1,.8746-.8812h34.73a.8766.8766,0,0,1,.88.8726v8.6709A.85.85,0,0,1,778.13,146.2561Z"/><path class="cls-1" d="M813.66,136.3457a.8508.8508,0,0,1,.6241-.2571h10.424a.8781.8781,0,0,1,.8811.8747h0v49.6318a.8778.8778,0,0,1-.8744.8811h-9.9907a1.05,1.05,0,0,1-1.0275-.5874L796.8121,158.846c-.0985-.1468-.1961-.2075-.2937-.1833s-.1465.1354-.1465.33l.0732,27.6021a.8777.8777,0,0,1-.8742.8811H785.14a.878.878,0,0,1-.8812-.8745V136.97a.878.878,0,0,1,.8747-.8811h10.0638a1.0531,1.0531,0,0,1,1.0275.5874l16.8117,27.969c.0976.1472.1952.2091.2936.1839s.1464-.1343.1464-.33l-.0732-27.5289A.8468.8468,0,0,1,813.66,136.3457Z"/><path class="cls-1" d="M870.6256,136.3457a.85.85,0,0,1,.2571.6241v8.7356a.8778.8778,0,0,1-.8744.881H857.1554a.3251.3251,0,0,0-.3676.2761h0a.3308.3308,0,0,0,0,.09v39.6415a.8763.8763,0,0,1-.8714.8811h-10.433a.8778.8778,0,0,1-.8811-.8745h0v-39.647a.3251.3251,0,0,0-.2771-.3666h0a.3308.3308,0,0,0-.09,0H831.8285a.8778.8778,0,0,1-.8811-.8745h0V136.97a.8779.8779,0,0,1,.8746-.8812h38.18A.8523.8523,0,0,1,870.6256,136.3457Z"/><path class="cls-1" d="M912.3963,146.2561a.85.85,0,0,1-.624.2571H888.7208a.3244.3244,0,0,0-.3666.2758.3287.3287,0,0,0,0,.0908v9.03a.324.324,0,0,0,.3666.3674h14.7556a.8771.8771,0,0,1,.8811.8731h0v8.5967a.878.878,0,0,1-.8745.8812H888.7205a.3244.3244,0,0,0-.3666.2756h0a.328.328,0,0,0,0,.0907v9.6913a.3243.3243,0,0,0,.2749.3666.3275.3275,0,0,0,.0917,0H911.772a.8762.8762,0,0,1,.88.8723h0v8.67a.8763.8763,0,0,1-.8715.8811H877.0487a.8778.8778,0,0,1-.8811-.8745h0V136.97a.8779.8779,0,0,1,.8746-.8812h34.73a.8766.8766,0,0,1,.88.8726v8.6709A.85.85,0,0,1,912.3963,146.2561Z"/><path class="cls-1" d="M966.6094,136.0889h5.5786a.65.65,0,0,1,.7346.7343v49.9186a.6489.6489,0,0,1-.7346.7339h-5.3589a1.0642,1.0642,0,0,1-.8811-.5142L942.9706,149.449c-.0488-.1468-.122-.2074-.22-.1833s-.1473.11-.1473.2571l.0741,37.2192a.6489.6489,0,0,1-.7346.7339h-5.5794a.6482.6482,0,0,1-.7338-.7339V136.8233a.6485.6485,0,0,1,.7338-.7342h5.4329a1.07,1.07,0,0,1,.8811.5141l22.9033,37.5129c.0489.1465.1221.2083.2206.1833s.1465-.11.1465-.2571l-.0732-37.2188a.65.65,0,0,1,.7345-.7342Z"/><path class="cls-1" d="M992.3018,185.9343a15.7385,15.7385,0,0,1-6.3864-6.2034,18.3,18.3,0,0,1-2.2755-9.2127V153.0465a18.1,18.1,0,0,1,2.2755-9.1761,15.8109,15.8109,0,0,1,6.3864-6.1664,21.6209,21.6209,0,0,1,19.0138,0,15.8217,15.8217,0,0,1,6.3864,6.1664,18.1089,18.1089,0,0,1,2.2755,9.1761v17.4717a18.3082,18.3082,0,0,1-2.2755,9.2127,15.7466,15.7466,0,0,1-6.3864,6.2034A21.6209,21.6209,0,0,1,992.3018,185.9343Zm17.5453-6.9738a11.0153,11.0153,0,0,0,3.0833-8.1487V152.9733a11.2386,11.2386,0,0,0-3.0833-8.2588,10.8544,10.8544,0,0,0-8.0754-3.12,10.7262,10.7262,0,0,0-8.038,3.12,11.3157,11.3157,0,0,0-3.0469,8.2588v17.8386a11.0887,11.0887,0,0,0,3.0469,8.1487,10.7944,10.7944,0,0,0,8.038,3.0833A10.9235,10.9235,0,0,0,1009.8471,178.9605Z"/><path class="cls-1" d="M1036.7506,186.3012a14.3445,14.3445,0,0,1-6.3863-4.992,12.93,12.93,0,0,1-2.2389-7.5613V171.62a.6489.6489,0,0,1,.7336-.7346h5.3589a.65.65,0,0,1,.7347.7346v1.7614a7.4017,7.4017,0,0,0,3.23,6.1668q3.2289,2.4222,8.8825,2.4228,5.0658,0,7.6344-2.1291a6.8962,6.8962,0,0,0,2.57-5.5794,5.9471,5.9471,0,0,0-1.322-3.89,12.5993,12.5993,0,0,0-3.8538-2.9736,74.0269,74.0269,0,0,0-7.3774-3.2664,74.1954,74.1954,0,0,1-8.4789-3.7441,15.6663,15.6663,0,0,1-5.1759-4.4412,11.2732,11.2732,0,0,1-2.0551-6.9376,11.9775,11.9775,0,0,1,4.5146-9.91q4.5156-3.5958,12.2228-3.5966a23.227,23.227,0,0,1,9.543,1.8349,14.663,14.663,0,0,1,6.35,5.1389,13.2786,13.2786,0,0,1,2.24,7.6344V151.58a.6492.6492,0,0,1-.7347.7339h-5.5054a.649.649,0,0,1-.7347-.7339v-1.1012a7.9267,7.9267,0,0,0-3.0461-6.35q-3.0473-2.5326-8.4057-2.5326-4.5532,0-7.047,1.8721a6.3338,6.3338,0,0,0-2.496,5.3959,6.0933,6.0933,0,0,0,1.2481,3.9641,10.8339,10.8339,0,0,0,3.7065,2.7527q2.4591,1.2111,7.5247,3.12a83.6927,83.6927,0,0,1,8.4422,3.7806,16.1294,16.1294,0,0,1,5.3589,4.5514,11.3214,11.3214,0,0,1,2.1292,7.0105,12.4118,12.4118,0,0,1-4.7343,10.2408q-4.7351,3.7821-13.03,3.7807A24.9413,24.9413,0,0,1,1036.7506,186.3012Z"/><path class="cls-1" d="M504.4957,217.9113H478.4349a.26.26,0,0,0-.2937.22.2639.2639,0,0,0,0,.0732v15.7831a.26.26,0,0,0,.22.2936h0a.2549.2549,0,0,0,.074,0h17.9122a.6494.6494,0,0,1,.7338.7339V239.64a.6487.6487,0,0,1-.7338.7338H478.4349a.26.26,0,0,0-.2937.2938V256.819a.2594.2594,0,0,0,.22.2937h0a.2535.2535,0,0,0,.0738,0h26.0608a.6491.6491,0,0,1,.7338.7339v4.625a.6487.6487,0,0,1-.7338.7339H471.828a.6483.6483,0,0,1-.7342-.7339V212.5524a.649.649,0,0,1,.7342-.7338h32.6677a.649.649,0,0,1,.7338.7338v4.6251a.6487.6487,0,0,1-.7338.7339Z"/><path class="cls-1" d="M521.0492,262.0307a14.3461,14.3461,0,0,1-6.3869-4.992,12.9334,12.9334,0,0,1-2.2389-7.5612v-2.1286a.65.65,0,0,1,.7343-.7347h5.3589a.65.65,0,0,1,.7338.7347V249.11a7.4022,7.4022,0,0,0,3.23,6.1667q3.23,2.4223,8.8824,2.4228,5.0657,0,7.6348-2.1291a6.8959,6.8959,0,0,0,2.5693-5.5794,5.95,5.95,0,0,0-1.3212-3.8905,12.616,12.616,0,0,0-3.8543-2.9735,73.9969,73.9969,0,0,0-7.3777-3.2665,74.4279,74.4279,0,0,1-8.479-3.7439,15.6507,15.6507,0,0,1-5.175-4.4413,11.2716,11.2716,0,0,1-2.0555-6.9372,11.9772,11.9772,0,0,1,4.5145-9.9108q4.515-3.5952,12.223-3.5968a23.2368,23.2368,0,0,1,9.5434,1.8354,14.6692,14.6692,0,0,1,6.35,5.1385,13.2886,13.2886,0,0,1,2.2389,7.6345v1.4684a.6487.6487,0,0,1-.7339.7338h-5.5057a.648.648,0,0,1-.734-.7338V226.206a7.9253,7.9253,0,0,0-3.0467-6.35q-3.0466-2.5326-8.4054-2.5326-4.5523,0-7.0475,1.8719a6.3348,6.3348,0,0,0-2.4959,5.3956,6.0967,6.0967,0,0,0,1.248,3.9645,10.8478,10.8478,0,0,0,3.7072,2.7531q2.4582,1.21,7.5246,3.12a83.3507,83.3507,0,0,1,8.4419,3.7806,16.136,16.136,0,0,1,5.3589,4.5511,11.3183,11.3183,0,0,1,2.129,7.01,12.4118,12.4118,0,0,1-4.7349,10.2411q-4.7352,3.7821-13.03,3.7806A24.9387,24.9387,0,0,1,521.0492,262.0307Z"/><path class="cls-1" d="M590.3117,212.5524v4.6986a.6485.6485,0,0,1-.7343.7337H575.4826a.26.26,0,0,0-.2938.2211h0a.2652.2652,0,0,0,0,.0723v44.1934a.6486.6486,0,0,1-.7338.7338h-5.58a.6481.6481,0,0,1-.7338-.7338V218.2782a.26.26,0,0,0-.2214-.2936h-.0012a.2573.2573,0,0,0-.0712,0H554.4137a.6481.6481,0,0,1-.7338-.7338v-4.6986a.6485.6485,0,0,1,.7338-.7338h35.1637a.6489.6489,0,0,1,.7343.7341Z"/><path class="cls-1" d="M625.0345,262.618l-2.6429-8.5891a.2878.2878,0,0,0-.2937-.22H601.47a.2873.2873,0,0,0-.2937.22l-2.6424,8.5891a.8556.8556,0,0,1-.8811.5874h-5.9463q-.808,0-.5874-.8081l16.0772-49.9916a.8557.8557,0,0,1,.8807-.5874h7.3412a.8554.8554,0,0,1,.8806.5874l16.2241,49.9916.0732.2937q0,.5149-.6606.5142H625.916A.8557.8557,0,0,1,625.0345,262.618ZM603.048,248.12a.3518.3518,0,0,0,.2571.11h16.8842a.3531.3531,0,0,0,.2571-.11.2051.2051,0,0,0,.0366-.2571l-8.5155-27.2348a.2383.2383,0,0,0-.44,0l-8.5157,27.2348a.2036.2036,0,0,0,.0367.2571Z"/><path class="cls-1" d="M640.9636,262.4716V212.5524a.649.649,0,0,1,.7342-.7338h17.7649q7.6347,0,12.1871,4A13.5243,13.5243,0,0,1,676.2009,226.5v22.0234a13.5125,13.5125,0,0,1-4.5511,10.6813q-4.5542,4.0026-12.187,4.001H641.6975a.6482.6482,0,0,1-.7339-.7338Zm7.3412-5.3589h11.4525a9.0324,9.0324,0,0,0,6.79-2.6066,9.8825,9.8825,0,0,0,2.6067-7.0105V227.5284a9.6289,9.6289,0,0,0-2.5334-7.0112,9.1341,9.1341,0,0,0-6.8632-2.6059H648.3049a.26.26,0,0,0-.2937.22.2565.2565,0,0,0,0,.0732v38.614a.2591.2591,0,0,0,.2195.2935h0a.2535.2535,0,0,0,.0738,0Z"/><path class="cls-1" d="M693.4517,261.6638a15.7387,15.7387,0,0,1-6.3865-6.2034,18.3007,18.3007,0,0,1-2.2753-9.2128V228.7764a18.107,18.107,0,0,1,2.2753-9.177,15.8118,15.8118,0,0,1,6.3865-6.1659,21.6207,21.6207,0,0,1,19.0137,0,15.82,15.82,0,0,1,6.3864,6.1659,18.1136,18.1136,0,0,1,2.2756,9.177v17.4714a18.31,18.31,0,0,1-2.2756,9.2128,15.7466,15.7466,0,0,1-6.3864,6.2034,21.6207,21.6207,0,0,1-19.0137,0Zm17.5452-6.9739a11.014,11.014,0,0,0,3.0834-8.1485v-17.839a11.2376,11.2376,0,0,0-3.0834-8.2585,10.8537,10.8537,0,0,0-8.0755-3.12,10.7265,10.7265,0,0,0-8.0379,3.12,11.3151,11.3151,0,0,0-3.0468,8.2585v17.8389a11.09,11.09,0,0,0,3.0468,8.1486,10.7954,10.7954,0,0,0,8.0379,3.0834,10.9241,10.9241,0,0,0,8.0755-3.0833Z"/><path class="cls-1" d="M737.9013,262.0307a14.3447,14.3447,0,0,1-6.3864-4.992,12.93,12.93,0,0,1-2.2389-7.5612v-2.1286a.6493.6493,0,0,1,.7338-.7347h5.359a.65.65,0,0,1,.7347.7347V249.11a7.4022,7.4022,0,0,0,3.23,6.1667q3.2289,2.4223,8.8825,2.4228,5.0652,0,7.6346-2.1291a6.8965,6.8965,0,0,0,2.57-5.5794,5.95,5.95,0,0,0-1.3221-3.8905,12.5975,12.5975,0,0,0-3.8538-2.9735,74.0148,74.0148,0,0,0-7.3774-3.2665,74.35,74.35,0,0,1-8.479-3.7439,15.6611,15.6611,0,0,1-5.1759-4.4413,11.2733,11.2733,0,0,1-2.055-6.9372,11.9773,11.9773,0,0,1,4.5146-9.9108q4.5153-3.5952,12.2229-3.5968a23.2317,23.2317,0,0,1,9.543,1.8354,14.662,14.662,0,0,1,6.35,5.1385,13.2818,13.2818,0,0,1,2.24,7.6345v1.4684a.6494.6494,0,0,1-.7347.7338h-5.5053a.6488.6488,0,0,1-.7346-.7338V226.206a7.9265,7.9265,0,0,0-3.0459-6.35q-3.0472-2.5326-8.4059-2.5326-4.553,0-7.047,1.8719a6.334,6.334,0,0,0-2.496,5.3956,6.0943,6.0943,0,0,0,1.248,3.9645,10.8385,10.8385,0,0,0,3.7066,2.7531q2.4589,1.21,7.5246,3.12a83.3573,83.3573,0,0,1,8.4423,3.7806,16.1269,16.1269,0,0,1,5.3591,4.5511,11.3212,11.3212,0,0,1,2.1292,7.01,12.412,12.412,0,0,1-4.735,10.2411q-4.7352,3.7821-13.03,3.7806A24.9467,24.9467,0,0,1,737.9013,262.0307Z"/><path class="cls-1" d="M797.8038,261.7a15.3516,15.3516,0,0,1-6.35-5.9463,17.0532,17.0532,0,0,1-2.2764-8.8458V212.5524a.6492.6492,0,0,1,.7346-.7338h5.5795a.649.649,0,0,1,.7338.7338V247.056a10.2141,10.2141,0,0,0,3.0469,7.7076,10.99,10.99,0,0,0,7.9647,2.9369,10.8671,10.8671,0,0,0,7.9281-2.9369,10.2809,10.2809,0,0,0,3.01-7.7076V212.5524a.6487.6487,0,0,1,.7339-.7338h5.5794a.6491.6491,0,0,1,.7339.7338v34.3559a17.2868,17.2868,0,0,1-2.2389,8.8458A15.12,15.12,0,0,1,816.67,261.7a22.31,22.31,0,0,1-18.8665,0Z"/><path class="cls-1" d="M867.7268,211.8186h5.5786a.65.65,0,0,1,.7347.7338v49.9192a.6492.6492,0,0,1-.7347.7339h-5.3589a1.0649,1.0649,0,0,1-.8811-.5142L844.088,225.1791q-.0732-.22-.22-.1833c-.0985.025-.1472.11-.1472.2563l.0741,37.22a.6492.6492,0,0,1-.7347.7339h-5.5794a.6483.6483,0,0,1-.7339-.5493.6561.6561,0,0,1,0-.1846v-49.92a.6486.6486,0,0,1,.7339-.7338h5.4327a1.07,1.07,0,0,1,.8811.5133l22.9035,37.5133c.0488.1465.122.2083.22.1833s.1465-.11.1465-.2571l-.0733-37.2188a.6492.6492,0,0,1,.7347-.734Z"/><path class="cls-1" d="M886.1517,262.4716V212.5524a.6484.6484,0,0,1,.7337-.7338h5.5794a.65.65,0,0,1,.7346.7338v49.9192a.6491.6491,0,0,1-.7346.7339h-5.5795a.648.648,0,0,1-.7336-.7339Z"/><path class="cls-1" d="M905.2377,262.4716V212.5524a.6485.6485,0,0,1,.7339-.7338h17.7656q7.6344,0,12.1864,4A13.52,13.52,0,0,1,940.4748,226.5v22.0234a13.5125,13.5125,0,0,1-4.5511,10.6813q-4.5533,4.0026-12.1864,4.001H905.9716a.6482.6482,0,0,1-.7339-.7338Zm7.3408-5.3589h11.4529a9.0313,9.0313,0,0,0,6.79-2.6066,9.8793,9.8793,0,0,0,2.6066-7.0105V227.5284a9.6328,9.6328,0,0,0-2.5325-7.0112,9.1357,9.1357,0,0,0-6.8642-2.6059H912.5785a.2592.2592,0,0,0-.2928.2937v38.614a.2583.2583,0,0,0,.2172.2936A.2554.2554,0,0,0,912.5785,257.1127Z"/><path class="cls-1" d="M957.7254,261.6638a15.7385,15.7385,0,0,1-6.3864-6.2034,18.3,18.3,0,0,1-2.2755-9.2128V228.7764a18.1062,18.1062,0,0,1,2.2755-9.177,15.8109,15.8109,0,0,1,6.3864-6.1659,21.6209,21.6209,0,0,1,19.0138,0,15.8192,15.8192,0,0,1,6.3864,6.1659,18.1135,18.1135,0,0,1,2.2755,9.177v17.4714a18.306,18.306,0,0,1-2.2755,9.2128,15.7487,15.7487,0,0,1-6.3865,6.2034,21.62,21.62,0,0,1-19.0136,0Zm17.5453-6.9739a11.0156,11.0156,0,0,0,3.0834-8.1485v-17.839a11.2393,11.2393,0,0,0-3.0834-8.2585,10.8536,10.8536,0,0,0-8.0754-3.12,10.7258,10.7258,0,0,0-8.038,3.12,11.3154,11.3154,0,0,0-3.0468,8.2585v17.8389a11.0876,11.0876,0,0,0,3.0468,8.1486,10.7947,10.7947,0,0,0,8.038,3.0834,10.9244,10.9244,0,0,0,8.0754-3.0833Z"/><path class="cls-1" d="M1002.1749,262.0307a14.3447,14.3447,0,0,1-6.3864-4.992,12.93,12.93,0,0,1-2.239-7.5612v-2.1286a.6493.6493,0,0,1,.7339-.7347h5.3589a.65.65,0,0,1,.7347.7347V249.11a7.4023,7.4023,0,0,0,3.23,6.1667q3.229,2.4223,8.8824,2.4228,5.0658,0,7.6345-2.1291a6.8957,6.8957,0,0,0,2.57-5.5794,5.9486,5.9486,0,0,0-1.322-3.8905,12.5979,12.5979,0,0,0-3.8539-2.9735,73.97,73.97,0,0,0-7.3773-3.2665,74.3481,74.3481,0,0,1-8.4789-3.7439,15.66,15.66,0,0,1-5.1757-4.4413,11.2728,11.2728,0,0,1-2.0552-6.9372,11.9775,11.9775,0,0,1,4.5146-9.9108q4.5153-3.5952,12.2229-3.5968a23.2317,23.2317,0,0,1,9.543,1.8354,14.664,14.664,0,0,1,6.35,5.1385,13.2818,13.2818,0,0,1,2.24,7.6345v1.4684a.6491.6491,0,0,1-.7346.7338h-5.5054a.6489.6489,0,0,1-.7346-.7338V226.206a7.927,7.927,0,0,0-3.0461-6.35q-3.0471-2.5326-8.4058-2.5326-4.5531,0-7.0472,1.8719a6.3339,6.3339,0,0,0-2.4959,5.3956,6.0944,6.0944,0,0,0,1.248,3.9645,10.8437,10.8437,0,0,0,3.7067,2.7531q2.4591,1.21,7.5248,3.12a83.4215,83.4215,0,0,1,8.4423,3.7806,16.1262,16.1262,0,0,1,5.3589,4.5511,11.3225,11.3225,0,0,1,2.1292,7.01,12.4127,12.4127,0,0,1-4.7349,10.2411q-4.7352,3.7821-13.03,3.7806A24.9424,24.9424,0,0,1,1002.1749,262.0307Z"/><path class="cls-1" d="M434.2851,258.2851C343.7314,196.3779,193.839,295.5427,69.29,250.021L69.1768,57.7466C187.0285,110.48,308.7961-3.3907,434.85,48.2194Z"/><path class="cls-2" d="M227.0056,173.01c-52.6082,11.2752-105.2141,18.2816-157.819-5.8828V56.8c52.6049,22.8479,105.2108,14.5138,157.819,1.9115Z"/><path class="cls-1" d="M80.1806,65.078c.709,1.6267,1.4131,3.2364,2.1151,4.8448,1.5752.7614,3.1392,1.4906,4.71,2.1913-1.14.72-2.2706,1.422-3.4079,2.1082.264,1.6015.5292,3.193.7989,4.7911q-2.1042-1.7634-4.2161-3.5793-2.0952.3084-4.2125.5544c.2732-1.3983.5419-2.7929.8106-4.2-1.141-1.4978-2.2715-3.01-3.4112-4.54q2.36.6294,4.7087,1.1706C78.7839,67.3218,79.4867,66.2015,80.1806,65.078Z"/><path class="cls-1" d="M106.8582,72.1621c.6972,1.5136,1.4014,3.0134,2.1022,4.5157,1.573.486,3.1359.9465,4.7122,1.3936q-1.7011,1.37-3.4079,2.6979c.2687,1.56.5385,3.1232.8049,4.6789-1.4038-.9362-2.81-1.8976-4.2114-2.8671-1.4062.4528-2.8147.8906-4.2161,1.3138q.401-2.1883.8025-4.3741c-1.1375-1.3042-2.2682-2.612-3.409-3.9461q2.3631.2073,4.7134.3336C105.4525,74.6635,106.1481,73.4208,106.8582,72.1621Z"/><path class="cls-1" d="M132.1431,74.96c.7075,1.4186,1.4094,2.8351,2.1149,4.2389,1.57.2721,3.1426.5362,4.7075.7784q-1.7025,1.5948-3.4043,3.1689.4,2.298.8,4.5968-2.1075-1.1385-4.2183-2.3115c-1.3969.6527-2.802,1.2964-4.2125,1.9173.2741-1.5045.54-3.01.8126-4.5147-1.1408-1.1454-2.27-2.3055-3.4123-3.4718q2.3579-.1509,4.711-.3485C130.7462,77.6667,131.4468,76.3211,132.1431,74.96Z"/><path class="cls-1" d="M159.9134,74.4224c.7053,1.3376,1.4152,2.6748,2.1068,4.0136,1.5742.09,3.1438.168,4.7179.2343-1.1374,1.2051-2.2738,2.39-3.4148,3.584q.4032,2.2668.8049,4.527c-1.3969-.6014-2.8054-1.2084-4.2148-1.8222q-2.1057,1.24-4.2161,2.4464c.2687-1.54.5419-3.097.8116-4.638-1.14-1.0175-2.2726-2.0383-3.4112-3.0625q2.3527-.4528,4.71-.9477C158.51,77.3121,159.2159,75.873,159.9134,74.4224Z"/><path class="cls-1" d="M186.3106,71.1972c.6952,1.2852,1.3994,2.5678,2.11,3.8586,1.56-.0369,3.1324-.0859,4.7053-.1421q-1.6977,1.9461-3.4125,3.8663c.2677,1.5058.54,3.002.8118,4.5q-2.1128-.73-4.215-1.4909c-1.4026.9591-2.8156,1.8965-4.2172,2.8352.2755-1.5858.5372-3.1574.8049-4.74-1.1261-.9248-2.2715-1.8451-3.4068-2.7734q2.3544-.6741,4.7076-1.3809C184.908,74.2223,185.6063,72.7165,186.3106,71.1972Z"/><path class="cls-1" d="M214.35,65.717c.7043,1.2563,1.4129,2.507,2.1114,3.7621,1.5706-.1269,3.1414-.2515,4.7121-.391-1.1408,1.3652-2.27,2.7289-3.4112,4.0778.27,1.4976.5374,2.98.8026,4.4733-1.4038-.4139-2.802-.8334-4.2149-1.26-1.3982,1.0448-2.8088,2.08-4.21,3.107.2676-1.5994.5349-3.2133.8073-4.8186-1.1421-.8469-2.2694-1.7088-3.4115-2.5674,1.5719-.5566,3.1391-1.1193,4.717-1.6873Q213.3012,68.0708,214.35,65.717Z"/><path class="cls-1" d="M200.7685,80.943q1.0563,1.9052,2.1081,3.8125,2.3544-.13,4.7121-.2766c-1.1387,1.3285-2.2714,2.6558-3.4146,3.9783.2721,1.4974.5488,2.9884.807,4.4858q-2.1039-.6776-4.2126-1.3729-2.1075,1.5141-4.2094,2.9849c.263-1.5914.5353-3.1816.8095-4.7833-1.1477-.8881-2.276-1.7673-3.4124-2.66,1.5675-.5076,3.1382-1.0118,4.7123-1.5389C199.3635,84.0262,200.0677,82.4851,200.7685,80.943Z"/><path class="cls-1" d="M173.5516,85.3237c.7086,1.3157,1.4061,2.6272,2.1091,3.9372,1.5662.0195,3.146.0343,4.7156.0343-1.1386,1.2507-2.2818,2.4967-3.41,3.7358.2607,1.5069.5315,3.0031.8035,4.51q-2.1121-.8112-4.2181-1.6461c-1.4.8983-2.8123,1.78-4.2127,2.6542.27-1.5659.5407-3.1343.8-4.6959-1.1285-.9638-2.2726-1.9345-3.4011-2.9151,1.5674-.3751,3.1415-.7648,4.7078-1.1663Q172.5037,87.5458,173.5516,85.3237Z"/><path class="cls-1" d="M145.7869,87.3321c.6985,1.3673,1.4,2.7529,2.1014,4.1281,1.5728.1853,3.1426.3467,4.7121.5078q-1.6992,1.6922-3.4043,3.3667c.265,1.5215.5338,3.0419.8023,4.5713-1.4-.6856-2.812-1.3729-4.2115-2.0735-1.3992.7453-2.8123,1.4689-4.2148,2.189.27-1.526.5419-3.06.8026-4.5805-1.1307-1.0815-2.2715-2.1721-3.4092-3.2637,1.5755-.2015,3.1382-.4176,4.71-.654Q144.73,89.4277,145.7869,87.3321Z"/><path class="cls-1" d="M120.4917,86.2508c.7055,1.4609,1.4038,2.91,2.11,4.3636q2.3508.5556,4.7108,1.0573-1.7079,1.4973-3.4124,2.9519.4046,2.3234.8048,4.6436c-1.4-.8449-2.8089-1.7-4.2127-2.5745-1.4.5637-2.8087,1.1179-4.2172,1.6486q.4132-2.2362.8093-4.4552-1.71-1.8243-3.4112-3.6833c1.5708.01,3.1415-.0126,4.7078-.0468C119.0812,88.8585,119.7925,87.56,120.4917,86.2508Z"/><path class="cls-1" d="M93.8235,81.3534q1.0478,2.3442,2.11,4.6689c1.5627.6206,3.1358,1.2139,4.7077,1.7865q-1.703,1.2246-3.41,2.4157.3978,2.3628.81,4.727-2.1111-1.5792-4.2174-3.2124c-1.4025.3339-2.8134.654-4.22.9467.27-1.42.5443-2.8523.8082-4.2834-1.1327-1.4051-2.2715-2.81-3.4065-4.2344,1.57.2743,3.1426.5189,4.7063.7317C92.421,83.73,93.1182,82.547,93.8235,81.3534Z"/><path class="cls-1" d="M82.3849,87.5563q1.0528,2.4126,2.108,4.8233c1.5719.7349,3.1392,1.4529,4.71,2.14-1.1374.7272-2.27,1.4463-3.4078,2.1436.2674,1.5935.5407,3.1827.8035,4.774q-2.1038-1.7283-4.2137-3.53c-1.4.2194-2.8144.43-4.2138.607.2733-1.3993.5341-2.8044.8062-4.2082-1.139-1.486-2.2717-2.986-3.4124-4.4981,1.5765.3977,3.14.7691,4.7133,1.1142Q81.3378,89.25,82.3849,87.5563Z"/><path class="cls-1" d="M109.0564,94.3936q1.0511,2.2518,2.1081,4.49c1.5674.4711,3.1382.93,4.7065,1.3616-1.1294.9179-2.27,1.8291-3.4079,2.7289.2688,1.5544.5374,3.1173.8082,4.67q-2.1108-1.3923-4.2149-2.8329-2.1106.7-4.2161,1.349c.2688-1.4517.54-2.9173.8037-4.3759q-1.6994-1.9464-3.4056-3.92c1.564.12,3.1415.2115,4.7031.2856C107.6493,96.903,108.35,95.6557,109.0564,94.3936Z"/><path class="cls-1" d="M134.3449,97.0049c.7043,1.4174,1.4085,2.8246,2.1117,4.2388,1.5659.264,3.14.5144,4.7074.7521-1.13,1.0645-2.2669,2.1323-3.409,3.1816q.4013,2.3045.8084,4.59-2.1108-1.1163-4.2185-2.2851c-1.4049.6663-2.8053,1.3147-4.2125,1.9456.2731-1.5088.5349-3.0133.807-4.5178-1.1341-1.1466-2.2726-2.291-3.41-3.4546,1.5752-.1064,3.1379-.2355,4.7167-.3787C132.94,99.7176,133.6486,98.3686,134.3449,97.0049Z"/><path class="cls-1" d="M162.1209,96.3473q1.0458,2.0064,2.1069,4.0036c1.5627.0881,3.1368.1623,4.7051.2207-1.1384,1.2129-2.2667,2.4054-3.41,3.5906.2675,1.5125.5385,3.0273.8046,4.5338-1.4-.5877-2.8076-1.1979-4.2067-1.8095-1.4109.8312-2.8111,1.6565-4.2185,2.4647.2677-1.5479.54-3.0959.8059-4.6425-1.1374-1.0186-2.2726-2.0292-3.4145-3.0535,1.5764-.3063,3.14-.6308,4.7167-.9683Q161.06,98.5229,162.1209,96.3473Z"/><path class="cls-1" d="M188.5079,93.06c.703,1.2827,1.4071,2.578,2.1068,3.8663,1.5765-.0459,3.14-.0939,4.7123-.1462-1.1353,1.29-2.2714,2.5927-3.4079,3.8743.2721,1.4973.5349,2.9994.8049,4.4925-1.4028-.4846-2.809-.9843-4.2161-1.4815q-2.1057,1.4283-4.2127,2.8361c.2651-1.5775.5374-3.1689.8025-4.743-1.1363-.92-2.2668-1.8441-3.4056-2.7688q2.3529-.6771,4.71-1.3821C187.1041,96.0914,187.8125,94.5778,188.5079,93.06Z"/><path class="cls-1" d="M216.55,87.6011c.7088,1.2527,1.4038,2.509,2.1127,3.7608,1.5616-.1164,3.1392-.2433,4.7076-.3782-1.1364,1.3649-2.268,2.7171-3.4068,4.071.2608,1.4938.5351,2.9869.8,4.4778-1.4015-.4219-2.81-.8474-4.2138-1.2761-1.3935,1.045-2.8156,2.08-4.2091,3.1109.2721-1.6039.5374-3.2172.8071-4.8188q-1.7115-1.2879-3.4079-2.5777c1.56-.5511,3.1382-1.1124,4.7078-1.68C215.1519,90.731,215.8471,89.1647,216.55,87.6011Z"/><path class="cls-1" d="M202.9749,102.8143c.6973,1.2715,1.4038,2.5415,2.1,3.8094,1.5755-.0813,3.1406-.1706,4.7123-.2677-1.135,1.3272-2.2736,2.6545-3.4021,3.9806q.398,2.2323.8026,4.4814c-1.4085-.45-2.8088-.909-4.2126-1.3649-1.4,1.0036-2.8179,1.9924-4.2173,2.9755.2677-1.5923.54-3.1837.8071-4.79-1.1351-.8758-2.276-1.7606-3.4112-2.6569,1.5672-.5111,3.1415-1.0208,4.7121-1.5433Q201.9133,105.1271,202.9749,102.8143Z"/><path class="cls-1" d="M175.7549,107.22q1.0583,1.9629,2.1057,3.9291,2.3562.0327,4.71.0329-1.7045,1.88-3.4045,3.7383c.2653,1.5.53,3.0134.8038,4.51-1.4061-.535-2.81-1.0861-4.215-1.6395-1.4085.9021-2.8123,1.7845-4.2149,2.6625.2618-1.5638.5373-3.1323.8049-4.6973q-1.7028-1.4439-3.4115-2.8946c1.572-.3942,3.1439-.7819,4.7147-1.1932C174.3459,110.1845,175.0525,108.7039,175.7549,107.22Z"/><path class="cls-1" d="M147.9843,109.3169c.7,1.3729,1.4072,2.7458,2.1068,4.1235,1.5719.17,3.1447.335,4.7134.4822-1.1329,1.1366-2.2738,2.2647-3.4056,3.3862.2641,1.5274.5338,3.04.8,4.5639q-2.1057-1.0071-4.2148-2.05-2.1077,1.1247-4.2094,2.2084c.2608-1.5282.53-3.0614.8-4.5841-1.1338-1.0757-2.2715-2.1639-3.4112-3.2522,1.5776-.21,3.1415-.4322,4.7134-.6733Q146.9232,111.4227,147.9843,109.3169Z"/><path class="cls-1" d="M122.6957,108.3773q1.0512,2.1846,2.1057,4.352c1.572.36,3.1372.7111,4.7111,1.0334-1.1453.999-2.2738,1.9937-3.4146,2.9758.2755,1.5433.5408,3.0864.81,4.632-1.4083-.8309-2.8112-1.6816-4.2127-2.539-1.4128.57-2.8132,1.1262-4.2228,1.6715.2755-1.4828.5441-2.9713.8149-4.455-1.1464-1.2176-2.2782-2.4374-3.4168-3.6685,1.5729-.0012,3.1415-.0229,4.7179-.0708C121.2793,111,121.9915,109.6952,122.6957,108.3773Z"/><path class="cls-1" d="M96.02,103.6991c.7075,1.56,1.4107,3.105,2.1081,4.653q2.3526.8966,4.7155,1.7466c-1.14.8208-2.2691,1.6361-3.4111,2.4432.264,1.5694.5338,3.146.8046,4.7188-1.4071-1.0378-2.8064-2.1-4.2171-3.1664-1.3993.3394-2.8067.6757-4.2116.9877q.3978-2.1537.8084-4.3053c-1.1408-1.3843-2.2716-2.7837-3.4137-4.1955,1.5753.2491,3.1382.4847,4.7112.6882Q94.9735,105.5,96.02,103.6991Z"/><path class="cls-1" d="M80.9025,109.2654q1.0515,2.4384,2.1059,4.854c1.5729.7625,3.14,1.4953,4.7133,2.2142q-1.708,1.0635-3.4045,2.09c.2641,1.5969.5341,3.1918.7991,4.7923-1.4083-1.181-2.8076-2.3812-4.2138-3.5976-1.4059.201-2.8132.3816-4.2137.5394q.4012-2.1039.806-4.1942-1.7063-2.26-3.41-4.56c1.5676.4216,3.1348.8276,4.7111,1.1969C79.4961,111.4866,80.2012,110.38,80.9025,109.2654Z"/><path class="cls-1" d="M107.568,116.495c.7055,1.5135,1.4,3.0169,2.1081,4.5144,1.57.5008,3.1438.9763,4.7087,1.43-1.1318.9056-2.2691,1.7915-3.4056,2.6843.2665,1.549.5374,3.1187.8026,4.678-1.3969-.95-2.8134-1.91-4.2138-2.8937q-2.1007.6758-4.2184,1.2909.4116-2.1816.8094-4.3716c-1.1339-1.3055-2.276-2.6292-3.4032-3.9611,1.565.1371,3.1391.2572,4.71.3509Q106.5184,118.3549,107.568,116.495Z"/><path class="cls-1" d="M132.8669,119.4432c.7039,1.42,1.4014,2.8351,2.1044,4.2481,1.5673.2914,3.14.5555,4.7064.81q-1.6992,1.5914-3.4009,3.1507c.2618,1.53.5351,3.0684.8059,4.6q-2.1177-1.15-4.2158-2.3389-2.1111.9707-4.2241,1.8886c.2732-1.5.5405-3.0077.81-4.51q-1.7007-1.73-3.4076-3.4947c1.5707-.0835,3.1379-.1932,4.7075-.3188C131.46,122.14,132.1614,120.7841,132.8669,119.4432Z"/><path class="cls-1" d="M160.6336,119.0933q1.0528,2.0151,2.1044,4.03c1.5719.1018,3.1451.1944,4.71.2721-1.1328,1.1868-2.2692,2.3779-3.409,3.5543.2708,1.5112.5385,3.0271.8106,4.5361-1.4118-.6059-2.8136-1.2234-4.2161-1.8576-1.4039.8218-2.8156,1.6311-4.2162,2.427q.4-2.3235.8014-4.6436-1.7012-1.5263-3.4076-3.0844,2.3524-.4323,4.71-.91C159.23,121.9719,159.9271,120.54,160.6336,119.0933Z"/><path class="cls-1" d="M187.024,116.0651c.7063,1.2965,1.4106,2.586,2.1081,3.8823,1.5763-.0253,3.1415-.0651,4.7167-.1063q-1.715,1.9292-3.41,3.85c.2606,1.4942.5282,2.9964.8,4.4916q-2.1039-.7443-4.2149-1.5194-2.1111,1.4149-4.215,2.8043.4029-2.3715.8039-4.7373-1.7011-1.3908-3.4045-2.7976c1.5684-.4411,3.1368-.8847,4.7087-1.3467Q185.9664,118.33,187.024,116.0651Z"/><path class="cls-1" d="M215.0725,110.8328q1.0529,1.89,2.1,3.7794c1.5732-.1076,3.1438-.2311,4.7147-.3522-1.141,1.3511-2.2751,2.707-3.4112,4.0457.27,1.4942.5372,2.9929.8116,4.4838q-2.1128-.6363-4.2149-1.2944c-1.4028,1.029-2.8159,2.0475-4.2173,3.065.2653-1.5981.5374-3.2022.8026-4.8094-1.1352-.8608-2.2693-1.7239-3.409-2.6019,1.57-.5419,3.1438-1.0837,4.7144-1.6381C213.6693,113.9491,214.3587,112.3875,215.0725,110.8328Z"/><path class="cls-1" d="M201.49,125.9366q1.0479,1.92,2.0978,3.8318,2.3543-.1149,4.7146-.2308-1.7013,1.9635-3.41,3.9486.3978,2.241.814,4.4892c-1.4049-.4675-2.8179-.93-4.2161-1.4015q-2.1057,1.4714-4.2194,2.9469.4046-2.3937.8048-4.7818c-1.1341-.8906-2.2738-1.7891-3.41-2.6841,1.5752-.5032,3.14-1.0036,4.7123-1.51C200.086,129.0128,200.7856,127.4753,201.49,125.9366Z"/><path class="cls-1" d="M174.2649,130.0965c.7042,1.3272,1.413,2.6362,2.1113,3.9555,1.5708.0376,3.1395.0583,4.7158.0732-1.1477,1.2438-2.2726,2.4773-3.4147,3.7094.2629,1.5034.5349,3.0079.799,4.518-1.3982-.5475-2.8063-1.118-4.2114-1.6815q-2.1039,1.3322-4.2138,2.6257c.2721-1.57.5418-3.1276.8082-4.7006q-1.7028-1.4493-3.4112-2.9255c1.5741-.37,3.1448-.7464,4.7144-1.14C172.8625,133.061,173.5675,131.5815,174.2649,130.0965Z"/><path class="cls-1" d="M146.5,131.8994c.6963,1.3845,1.4038,2.7711,2.1057,4.1484,1.57.1876,3.1449.3763,4.71.54q-1.7041,1.6839-3.41,3.35.4046,2.2772.8046,4.5726-2.1-1.0428-4.21-2.0977c-1.4051.7261-2.8053,1.4486-4.2127,2.1549q.3961-2.2877.8-4.5728-1.7049-1.6374-3.41-3.2968c1.5788-.1865,3.1438-.3946,4.72-.6175Q145.4438,134.0017,146.5,131.8994Z"/><path class="cls-1" d="M121.2075,130.6578c.7,1.4633,1.4025,2.9162,2.1057,4.3772,1.5739.3785,3.1438.7454,4.711,1.0872q-1.7046,1.4849-3.4135,2.9371c.2764,1.5464.5441,3.0934.8149,4.64q-2.1106-1.2825-4.2181-2.5927c-1.4038.5555-2.8136,1.0929-4.215,1.6151.2709-1.4871.5394-2.96.8071-4.4457-1.1363-1.221-2.2774-2.4634-3.4148-3.7062,1.5719.0139,3.1471.0139,4.7123-.01C119.8037,133.2573,120.5067,131.9622,121.2075,130.6578Z"/><path class="cls-1" d="M94.537,125.6062c.7019,1.5708,1.4082,3.13,2.1057,4.6848,1.5775.63,3.1426,1.2334,4.7167,1.8084-1.1387.8082-2.276,1.6142-3.4148,2.3972.2677,1.5741.5374,3.1587.8061,4.7259q-2.1027-1.588-4.2137-3.2259c-1.4085.3279-2.8147.64-4.21.9248.26-1.428.53-2.8523.8037-4.2848q-1.71-2.1127-3.409-4.2434c1.57.2744,3.1358.53,4.7121.7534C93.1285,127.9713,93.8338,126.7974,94.537,125.6062Z"/><path class="cls-1" d="M80.9025,132.0229q1.0515,2.4417,2.1059,4.864,2.3594,1.1576,4.7133,2.24c-1.134.7086-2.2728,1.399-3.4045,2.0782.2641,1.5935.5341,3.1927.7991,4.7911-1.4083-1.1868-2.8076-2.3963-4.2138-3.6239-1.4059.2-2.8132.37-4.2137.5234.2675-1.4049.5385-2.7938.806-4.1943q-1.7063-2.2651-3.41-4.5715,2.3514.65,4.7111,1.2209Q79.8466,133.6906,80.9025,132.0229Z"/><path class="cls-1" d="M107.568,139.3836c.7055,1.5229,1.41,3.0321,2.1081,4.5422,1.57.5027,3.1438.9877,4.7087,1.4494q-1.6977,1.3359-3.4056,2.66c.2665,1.5582.5374,3.1231.8026,4.6894-1.3969-.9624-2.8134-1.932-4.2138-2.921q-2.1007.66-4.2184,1.2621c.2744-1.4437.5453-2.9.8094-4.3544-1.1339-1.3147-2.276-2.6464-3.4032-3.9816,1.565.1509,3.1391.2687,4.71.3785Q106.5184,141.2545,107.568,139.3836Z"/><path class="cls-1" d="M132.8669,142.4648c.7039,1.4288,1.4014,2.8453,2.1044,4.2661,1.5673.3019,3.14.5752,4.71.8335-1.1364,1.0482-2.2715,2.0966-3.4045,3.1313.2618,1.5341.5351,3.0728.8059,4.6035-1.4118-.7751-2.8144-1.5536-4.2158-2.3572q-2.1111.9531-4.2241,1.8713c.2732-1.5055.5405-3.0066.81-4.5122q-1.7007-1.7385-3.4076-3.5106,2.3561-.1185,4.7075-.295C131.46,145.1626,132.1614,143.8146,132.8669,142.4648Z"/><path class="cls-1" d="M160.6336,142.2658c.7019,1.3455,1.4025,2.6957,2.1044,4.0376,1.5719.1178,3.1451.2048,4.71.2975q-1.6992,1.7814-3.409,3.5334c.2708,1.5194.5385,3.0294.8106,4.5464-1.4118-.6172-2.8136-1.2392-4.2161-1.8841-1.4039.82-2.8156,1.6133-4.2162,2.4066q.4-2.32.8014-4.6367c-1.1341-1.0313-2.2715-2.06-3.4067-3.1,1.5674-.2813,3.1415-.5842,4.7089-.8919C159.23,145.1431,159.9271,143.7016,160.6336,142.2658Z"/><path class="cls-1" d="M187.024,139.3713c.7063,1.3,1.4106,2.5914,2.1081,3.8947,1.5763-.0159,3.1415-.0457,4.7167-.0812q-1.715,1.9257-3.41,3.8286.3909,2.2548.8,4.5019c-1.4026-.5042-2.8067-1.0208-4.2149-1.54-1.4074.9272-2.8135,1.8574-4.215,2.7766.2686-1.5763.5362-3.1585.8039-4.7351q-1.7011-1.4007-3.4045-2.8179c1.5684-.4228,3.1368-.8617,4.7087-1.3055Q185.9664,141.6337,187.024,139.3713Z"/><path class="cls-1" d="M215.0725,134.2862q1.0529,1.8951,2.1,3.7979,2.36-.163,4.7147-.3327-1.7115,2.0183-3.4112,4.0249c.27,1.5011.5372,2.9929.8116,4.49q-2.1128-.6516-4.2149-1.3171c-1.4028,1.0244-2.8159,2.0407-4.2173,3.048.2653-1.5994.5374-3.2081.8026-4.8119q-1.7028-1.3085-3.4044-2.6087c1.5649-.5418,3.1392-1.08,4.71-1.6267C213.6693,137.397,214.3587,135.8377,215.0725,134.2862Z"/><path class="cls-1" d="M80.9025,153.99c.701,1.6291,1.4062,3.2594,2.1059,4.8758,1.5729.774,3.14,1.5307,4.7133,2.2555q-1.708,1.0565-3.4045,2.06c.2641,1.605.5341,3.2011.7991,4.798-1.4083-1.19-2.8076-2.4063-4.2138-3.64-1.4059.1886-2.8132.3567-4.2137.5018.2675-1.4.5385-2.7962.806-4.2q-1.7063-2.26-3.41-4.5829c1.5676.4425,3.1348.8518,4.7111,1.2415C79.4961,156.207,80.2012,155.099,80.9025,153.99Z"/><path class="cls-1" d="M107.568,161.4862c.7055,1.52,1.4,3.04,2.1081,4.5476,1.57.5109,3.1438.9946,4.7087,1.4736q-1.6977,1.3356-3.4056,2.6429c.2665,1.5662.5374,3.1254.8026,4.6906-1.3969-.9649-2.8134-1.9435-4.2138-2.9368-1.4.4322-2.8063.8458-4.2184,1.2538q.4116-2.1828.8094-4.3633c-1.1339-1.3228-2.276-2.6568-3.4032-4.0012,1.565.1623,3.1391.288,4.71.4022Q106.5184,163.354,107.568,161.4862Z"/><path class="cls-1" d="M132.8669,164.69c.7039,1.4314,1.4014,2.8591,2.1044,4.2779,1.5673.303,3.14.5877,4.7064.855-1.1328,1.0474-2.2679,2.0955-3.4009,3.1176.2618,1.5328.5351,3.0707.8059,4.6037q-2.1177-1.1682-4.2158-2.3757-2.1111.94-4.2241,1.8428.41-2.2532.81-4.4961-1.7007-1.7526-3.4076-3.5278c1.5707-.0766,3.1379-.1727,4.7075-.279C131.46,167.3711,132.1614,166.0383,132.8669,164.69Z"/><path class="cls-1" d="M160.6336,164.623q1.0528,2.0336,2.1044,4.0538c1.5719.1178,3.1451.231,4.71.3188q-1.6992,1.7715-3.409,3.5278c.2708,1.5093.5385,3.0273.8106,4.5409-1.4118-.6174-2.8136-1.2563-4.2161-1.8954-1.4039.8026-2.8156,1.5914-4.2162,2.371.2665-1.5375.5362-3.0843.8014-4.6242-1.1341-1.0335-2.2715-2.0772-3.4076-3.12q2.3524-.4133,4.71-.87C159.23,167.498,159.9271,166.0667,160.6336,164.623Z"/><path class="cls-1" d="M187.024,161.8689q1.0594,1.9482,2.1081,3.9c1.5763-.0092,3.1415-.0218,4.7167-.0573-1.1433,1.2735-2.28,2.5493-3.41,3.8149.2606,1.5066.5282,3.0053.8,4.5065-1.4026-.5111-2.8067-1.037-4.2149-1.5628q-2.1111,1.3872-4.215,2.7584.4029-2.3646.8039-4.7269-1.7011-1.4181-3.4045-2.8329c1.5684-.4252,3.1368-.8529,4.7087-1.2941C185.6166,164.8735,186.3225,163.377,187.024,161.8689Z"/><path class="cls-1" d="M215.0725,156.9156c.7019,1.269,1.3992,2.5438,2.1,3.8125q2.36-.1524,4.7147-.3086c-1.141,1.3431-2.2751,2.6751-3.4112,4.0092.27,1.5.5372,2.9928.8116,4.4972q-2.1128-.6684-4.2149-1.3419c-1.4028,1.01-2.8159,2.021-4.2173,3.028.2653-1.6048.5374-3.202.8026-4.8058q-1.7028-1.3168-3.409-2.6385c1.57-.5212,3.1438-1.0573,4.7144-1.5915C213.6693,160.0206,214.3587,158.4739,215.0725,156.9156Z"/><path class="cls-1" d="M201.49,149.3192q1.0479,1.9238,2.0978,3.84c1.57-.0629,3.1471-.1291,4.7146-.2092-1.1238,1.3134-2.2715,2.6269-3.4012,3.936.2561,1.4929.5329,2.9986.8049,4.49-1.4049-.4675-2.8179-.94-4.2161-1.4152q-2.1057,1.4679-4.2194,2.92c.27-1.5961.5394-3.1816.8048-4.7728-1.1341-.9011-2.2738-1.8075-3.4056-2.7082,1.5707-.4848,3.14-.9854,4.7078-1.4759C200.086,152.3865,200.7856,150.8535,201.49,149.3192Z"/><path class="cls-1" d="M174.2649,153.3443c.7042,1.32,1.413,2.6431,2.1113,3.967,1.5708.0342,3.1395.0663,4.7158.0913-1.1477,1.238-2.2726,2.4648-3.4147,3.69.2629,1.5032.5349,3.018.799,4.5246-1.3982-.5659-2.8063-1.1317-4.2114-1.7044-1.4026.878-2.8067,1.75-4.2138,2.5961.2721-1.5535.5418-3.12.8082-4.6835q-1.7028-1.4733-3.4112-2.9539c1.5741-.351,3.1448-.7262,4.7144-1.1149C172.8625,156.2925,173.5675,154.8191,174.2649,153.3443Z"/><path class="cls-1" d="M146.5,155.0066c.6963,1.3775,1.4038,2.7651,2.1057,4.1508,1.57.2014,3.1449.3865,4.71.5636q-1.7041,1.6806-3.41,3.3312c.27,1.5263.54,3.0433.8046,4.5751q-2.1-1.0428-4.21-2.1206c-1.4051.7271-2.8053,1.4369-4.2127,2.1285.2641-1.5134.5338-3.0372.8106-4.5624-1.1468-1.0951-2.2749-2.1992-3.417-3.3073,1.5752-.18,3.14-.3782,4.7167-.5931Q145.4438,157.0942,146.5,155.0066Z"/><path class="cls-1" d="M121.2075,153.6279c.703,1.4678,1.4025,2.9265,2.1057,4.3876,1.5739.3863,3.1438.7623,4.711,1.1124q-1.7046,1.4727-3.4135,2.9172c.2764,1.5491.5441,3.0945.8149,4.6436q-2.1106-1.2863-4.2181-2.6165c-1.4038.5463-2.8136,1.0836-4.215,1.5968q.4064-2.2157.8071-4.4425-1.7044-1.8463-3.4148-3.7232c1.5719.0229,3.1471.0229,4.7123.0114Q120.157,155.5785,121.2075,153.6279Z"/><path class="cls-1" d="M94.537,148.4389c.7019,1.5753,1.4082,3.1312,2.1057,4.6986,1.5775.631,3.1426,1.2436,4.7167,1.8314-1.1387.8014-2.276,1.5957-3.4148,2.37q.4016,2.3751.8061,4.7418c-1.4017-1.0643-2.8088-2.1433-4.2137-3.2568q-2.1128.4868-4.21.9065.39-2.133.8037-4.2811-1.7028-2.1111-3.409-4.263c1.57.2856,3.1358.5429,4.7121.7773C93.1285,150.8,93.8338,149.6222,94.537,148.4389Z"/><path class="cls-3" d="M434.85,67.7025c-67.2739-29.4837-134.5414-8-201.8017,8.2058V57.2494c67.26-16.4755,134.5278-38.2372,201.8017-9.03Z"/><path class="cls-3" d="M434.85,101.4553c-67.2739-29.9631-134.5414-8.957-201.8017,6.7732V89.573C300.3087,73.57,367.5765,52.2881,434.85,81.9673Z"/><path class="cls-3" d="M434.85,136.3885c-67.2739-30.45-134.5414-9.9376-201.8017,5.2884V123.0258c67.26-15.5015,134.5278-36.2936,201.8017-6.116Z"/><path class="cls-3" d="M434.465,202.4017C312.7483,146.1309,191.0236,256.0939,69.3,199.416V181.4289c121.7237,56.1786,243.4485-54.28,365.1651,1.4976Z"/><path class="cls-3" d="M434.3777,236.1637C312.69,179.011,190.9945,288.1137,69.3,230.5724V212.5911c121.6946,57.04,243.39-52.5557,365.0778,4.0824Z"/><path class="cls-3" d="M434.2949,271.0879c-121.66-58.04-243.328,50.17-364.995-8.2641V244.8427c121.667,57.9308,243.3351-50.77,364.995,6.7687Z"/><path class="cls-3" d="M434.85,167.7439c-67.2739-30.9-134.5414-10.8339-201.8017,3.95V153.0471c67.26-15.0637,134.5278-35.4088,201.8017-4.79Z"/></svg>