<svg id="Layer_1" data-name="Layer 1" xmlns="http://www.w3.org/2000/svg" width="124.1791" height="116.3289" viewBox="0 0 124.1791 116.3289"><defs><style>.cls-1{fill:#f5a800;fill-rule:evenodd;}</style></defs><path class="cls-1" d="M95.1021,2.4019c6.3036,4.1126,10.0562,12.5547,9.4505,19.6887a53.8683,53.8683,0,0,1,11.3054,17.615,51.8815,51.8815,0,0,1,3.6228,18.653c3.74,2.1193,5.562,7.5445,4.3009,12.8631-1.2364,5.3246-5.24,9.1972-9.4287,9.274a47.3636,47.3636,0,0,1-27.4938,23.89A18.8594,18.8594,0,0,1,71.58,116.2576c-7.3961.7154-12.972-4.0247-12.6766-11.0581A51.7112,51.7112,0,0,1,36.126,92.24,53.5188,53.5188,0,0,1,21.34,66.4063C8.4418,63.1439-1.4073,52.6173.1652,41.8006,1.82,30.8966,14.323,25.1219,27.6629,27.7914A47.63,47.63,0,0,1,50.9947,9.2455,48.7128,48.7128,0,0,1,78.1464,7.2948C80.7747-.0475,88.2-2.1651,95.1021,2.4019Zm7.11,26.6169C99.4,33.05,94.6123,34.6735,89.1,32.2544c-5.5085-2.4082-10.22-8.746-11.5147-15.6024A39.4654,39.4654,0,0,0,40.3574,33.2453c7.2454,5.2171,11.2132,12.9225,9.9264,19.9861-1.2969,7.0576-7.5558,12.232-15.7928,13.731A43.7872,43.7872,0,0,0,45.0707,86.3,42.0169,42.0169,0,0,0,61.7022,97.2209c3.5444-5.1555,9.9433-8.5,15.6441-8.1229,5.7028.3772,9.2719,3.9137,10.1424,8.52a39.468,39.468,0,0,0,22.29-18.7126c-2.9634-2.37-4.46-7.0819-3.352-12.0605,1.1174-4.9725,4.5-8.5224,8.1973-9.257a43.538,43.538,0,0,0-3.3432-14.8866A44.4293,44.4293,0,0,0,102.2117,29.0188Z"/></svg>